Nobel-Condensed_Book.ufo
<glyph name="exclam" format="1">
  <advance width="184"/>
  <unicode hex="0021"/>
  <outline>
    <contour>
      <point x="122" y="328" type="line"/>
      <point x="106" y="132" type="line"/>
      <point x="77" y="132" type="line"/>
      <point x="62" y="328" type="line"/>
      <point x="62" y="730" type="line"/>
      <point x="122" y="730" type="line"/>
    </contour>
    <contour>
      <point x="122" y="0" type="line"/>
      <point x="61" y="0" type="line"/>
      <point x="61" y="85" type="line"/>
      <point x="122" y="85" type="line"/>
    </contour>
  </outline>
</glyph>
<glyph name="quotedbl" format="1">
  <advance width="256"/>
  <unicode hex="0022"/>
  <outline>
    <contour>
      <point x="214" y="642" type="line"/>
      <point x="200" y="543" type="line"/>
      <point x="172" y="543" type="line"/>
      <point x="157" y="642" type="line"/>
      <point x="157" y="730" type="line"/>
      <point x="214" y="730" type="line"/>
    </contour>
    <contour>
      <point x="99" y="642" type="line"/>
      <point x="85" y="543" type="line"/>
      <point x="57" y="543" type="line"/>
      <point x="42" y="642" type="line"/>
      <point x="42" y="730" type="line"/>
      <point x="99" y="730" type="line"/>
    </contour>
  </outline>
</glyph>
<glyph name="numbersign" format="1">
  <advance width="524"/>
  <unicode hex="0023"/>
  <outline>
    <contour>
      <point x="491" y="468" type="line"/>
      <point x="393" y="468" type="line"/>
      <point x="375" y="263" type="line"/>
      <point x="485" y="263" type="line"/>
      <point x="485" y="218" type="line"/>
      <point x="371" y="218" type="line"/>
      <point x="352" y="0" type="line"/>
      <point x="299" y="0" type="line"/>
      <point x="318" y="218" type="line"/>
      <point x="180" y="218" type="line"/>
      <point x="161" y="0" type="line"/>
      <point x="108" y="0" type="line"/>
      <point x="127" y="218" type="line"/>
      <point x="33" y="218" type="line"/>
      <point x="33" y="263" type="line"/>
      <point x="131" y="263" type="line"/>
      <point x="148" y="468" type="line"/>
      <point x="39" y="468" type="line"/>
      <point x="39" y="513" type="line"/>
      <point x="153" y="513" type="line"/>
      <point x="172" y="730" type="line"/>
      <point x="225" y="730" type="line"/>
      <point x="206" y="513" type="line"/>
      <point x="344" y="513" type="line"/>
      <point x="363" y="730" type="line"/>
      <point x="416" y="730" type="line"/>
      <point x="397" y="513" type="line"/>
      <point x="491" y="513" type="line"/>
    </contour>
    <contour>
      <point x="340" y="468" type="line"/>
      <point x="202" y="468" type="line"/>
      <point x="184" y="263" type="line"/>
      <point x="322" y="263" type="line"/>
    </contour>
  </outline>
</glyph>
<glyph name="dollar" format="1">
  <advance width="351"/>
  <unicode hex="0024"/>
  <outline>
    <contour>
      <point x="320" y="167" type="curve" smooth="yes"/>
      <point x="320" y="87"/>
      <point x="268" y="13"/>
      <point x="192" y="0" type="curve"/>
      <point x="192" y="-75" type="line"/>
      <point x="149" y="-75" type="line"/>
      <point x="149" y="-1" type="line"/>
      <point x="96" y="4"/>
      <point x="56" y="32"/>
      <point x="25" y="76" type="curve"/>
      <point x="67" y="118" type="line"/>
      <point x="94" y="79"/>
      <point x="126" y="56"/>
      <point x="169" y="56" type="curve" smooth="yes"/>
      <point x="227" y="56"/>
      <point x="259" y="109"/>
      <point x="259" y="163" type="curve" smooth="yes"/>
      <point x="259" y="226"/>
      <point x="223" y="279"/>
      <point x="156" y="351" type="curve" smooth="yes"/>
      <point x="74" y="441"/>
      <point x="32" y="490"/>
      <point x="32" y="568" type="curve" smooth="yes"/>
      <point x="32" y="647"/>
      <point x="82" y="715"/>
      <point x="151" y="729" type="curve"/>
      <point x="151" y="783" type="line"/>
      <point x="193" y="783" type="line"/>
      <point x="193" y="731" type="line"/>
      <point x="246" y="726"/>
      <point x="280" y="698"/>
      <point x="304" y="664" type="curve"/>
      <point x="262" y="624" type="line"/>
      <point x="238" y="655"/>
      <point x="213" y="674"/>
      <point x="178" y="674" type="curve" smooth="yes"/>
      <point x="126" y="674"/>
      <point x="93" y="629"/>
      <point x="93" y="572" type="curve" smooth="yes"/>
      <point x="93" y="520"/>
      <point x="127" y="473"/>
      <point x="192" y="403" type="curve" smooth="yes"/>
      <point x="275" y="313"/>
      <point x="320" y="256"/>
    </contour>
  </outline>
</glyph>
<glyph name="percent" format="1">
  <advance width="632"/>
  <unicode hex="0025"/>
  <outline>
    <contour>
      <point x="290" y="554" type="curve" smooth="yes"/>
      <point x="290" y="449"/>
      <point x="239" y="364"/>
      <point x="163" y="364" type="curve" smooth="yes"/>
      <point x="89" y="364"/>
      <point x="41" y="449"/>
      <point x="41" y="553" type="curve" smooth="yes"/>
      <point x="41" y="658"/>
      <point x="92" y="742"/>
      <point x="167" y="742" type="curve" smooth="yes"/>
      <point x="244" y="742"/>
      <point x="290" y="656"/>
    </contour>
    <contour>
      <point x="550" y="730" type="line"/>
      <point x="138" y="0" type="line"/>
      <point x="83" y="0" type="line"/>
      <point x="494" y="730" type="line"/>
    </contour>
    <contour>
      <point x="591" y="178" type="curve" smooth="yes"/>
      <point x="591" y="73"/>
      <point x="541" y="-12"/>
      <point x="465" y="-12" type="curve" smooth="yes"/>
      <point x="391" y="-12"/>
      <point x="343" y="73"/>
      <point x="343" y="177" type="curve" smooth="yes"/>
      <point x="343" y="281"/>
      <point x="393" y="366"/>
      <point x="469" y="366" type="curve" smooth="yes"/>
      <point x="545" y="366"/>
      <point x="591" y="280"/>
    </contour>
    <contour>
      <point x="237" y="553" type="curve" smooth="yes"/>
      <point x="237" y="637"/>
      <point x="208" y="696"/>
      <point x="165" y="696" type="curve" smooth="yes"/>
      <point x="122" y="696"/>
      <point x="94" y="639"/>
      <point x="94" y="553" type="curve" smooth="yes"/>
      <point x="94" y="468"/>
      <point x="122" y="411"/>
      <point x="164" y="411" type="curve" smooth="yes"/>
      <point x="208" y="411"/>
      <point x="237" y="468"/>
    </contour>
    <contour>
      <point x="538" y="177" type="curve" smooth="yes"/>
      <point x="538" y="261"/>
      <point x="509" y="319"/>
      <point x="467" y="319" type="curve" smooth="yes"/>
      <point x="424" y="319"/>
      <point x="395" y="262"/>
      <point x="395" y="177" type="curve" smooth="yes"/>
      <point x="395" y="91"/>
      <point x="424" y="34"/>
      <point x="466" y="34" type="curve" smooth="yes"/>
      <point x="510" y="34"/>
      <point x="538" y="92"/>
    </contour>
  </outline>
</glyph>
<glyph name="ampersand" format="1">
  <advance width="431"/>
  <unicode hex="0026"/>
  <outline>
    <contour>
      <point x="421" y="0" type="line"/>
      <point x="356" y="0" type="line"/>
      <point x="314" y="74" type="line"/>
      <point x="276" y="24"/>
      <point x="230" y="-12"/>
      <point x="174" y="-12" type="curve" smooth="yes"/>
      <point x="86" y="-12"/>
      <point x="29" y="69"/>
      <point x="29" y="165" type="curve" smooth="yes"/>
      <point x="29" y="253"/>
      <point x="80" y="320"/>
      <point x="137" y="392" type="curve"/>
      <point x="106" y="447" type="line" smooth="yes"/>
      <point x="79" y="495"/>
      <point x="61" y="548"/>
      <point x="61" y="595" type="curve" smooth="yes"/>
      <point x="61" y="673"/>
      <point x="101" y="742"/>
      <point x="173" y="742" type="curve" smooth="yes"/>
      <point x="245" y="742"/>
      <point x="284" y="672"/>
      <point x="284" y="597" type="curve" smooth="yes"/>
      <point x="284" y="514"/>
      <point x="245" y="447"/>
      <point x="202" y="389" type="curve"/>
      <point x="321" y="176" type="line"/>
      <point x="337" y="206"/>
      <point x="351" y="238"/>
      <point x="362" y="269" type="curve"/>
      <point x="394" y="208" type="line"/>
      <point x="384" y="182"/>
      <point x="369" y="152"/>
      <point x="352" y="122" type="curve"/>
    </contour>
    <contour>
      <point x="228" y="595" type="curve" smooth="yes"/>
      <point x="228" y="638"/>
      <point x="211" y="685"/>
      <point x="172" y="685" type="curve" smooth="yes"/>
      <point x="134" y="685"/>
      <point x="119" y="641"/>
      <point x="119" y="595" type="curve" smooth="yes"/>
      <point x="119" y="559"/>
      <point x="132" y="516"/>
      <point x="153" y="475" type="curve" smooth="yes"/>
      <point x="173" y="436" type="line"/>
      <point x="206" y="481"/>
      <point x="228" y="536"/>
    </contour>
    <contour>
      <point x="287" y="125" type="curve"/>
      <point x="165" y="343" type="line"/>
      <point x="122" y="286"/>
      <point x="91" y="228"/>
      <point x="91" y="166" type="curve" smooth="yes"/>
      <point x="91" y="101"/>
      <point x="125" y="46"/>
      <point x="176" y="46" type="curve" smooth="yes"/>
      <point x="217" y="46"/>
      <point x="255" y="76"/>
    </contour>
  </outline>
</glyph>
<glyph name="quotesingle" format="1">
  <advance width="141"/>
  <unicode hex="0027"/>
  <outline>
    <contour>
      <point x="99" y="642" type="line"/>
      <point x="85" y="543" type="line"/>
      <point x="57" y="543" type="line"/>
      <point x="42" y="642" type="line"/>
      <point x="42" y="730" type="line"/>
      <point x="99" y="730" type="line"/>
    </contour>
  </outline>
</glyph>
<glyph name="parenleft" format="1">
  <advance width="256"/>
  <unicode hex="0028"/>
  <outline>
    <contour>
      <point x="222" y="-188" type="line"/>
      <point x="114" y="-76"/>
      <point x="39" y="91"/>
      <point x="39" y="287" type="curve" smooth="yes"/>
      <point x="39" y="484"/>
      <point x="114" y="642"/>
      <point x="222" y="754" type="curve"/>
      <point x="222" y="698" type="line"/>
      <point x="145" y="591"/>
      <point x="100" y="463"/>
      <point x="100" y="287" type="curve" smooth="yes"/>
      <point x="100" y="112"/>
      <point x="145" y="-28"/>
      <point x="222" y="-135" type="curve"/>
    </contour>
  </outline>
</glyph>
<glyph name="parenright" format="1">
  <advance width="256"/>
  <unicode hex="0029"/>
  <outline>
    <contour>
      <point x="216" y="287" type="curve" smooth="yes"/>
      <point x="216" y="91"/>
      <point x="141" y="-76"/>
      <point x="34" y="-188" type="curve"/>
      <point x="34" y="-135" type="line"/>
      <point x="111" y="-28"/>
      <point x="155" y="112"/>
      <point x="155" y="287" type="curve" smooth="yes"/>
      <point x="155" y="463"/>
      <point x="111" y="591"/>
      <point x="34" y="698" type="curve"/>
      <point x="34" y="754" type="line"/>
      <point x="141" y="642"/>
      <point x="216" y="484"/>
    </contour>
  </outline>
</glyph>
<glyph name="asterisk" format="1">
  <advance width="350"/>
  <unicode hex="002A"/>
  <outline>
    <contour>
      <point x="321" y="610" type="line"/>
      <point x="212" y="571" type="line"/>
      <point x="277" y="477" type="line"/>
      <point x="245" y="453" type="line"/>
      <point x="175" y="544" type="line"/>
      <point x="105" y="453" type="line"/>
      <point x="72" y="476" type="line"/>
      <point x="138" y="571" type="line"/>
      <point x="29" y="610" type="line"/>
      <point x="43" y="648" type="line"/>
      <point x="153" y="615" type="line"/>
      <point x="154" y="730" type="line"/>
      <point x="195" y="730" type="line"/>
      <point x="197" y="615" type="line"/>
      <point x="307" y="648" type="line"/>
    </contour>
  </outline>
</glyph>
<glyph name="plus" format="1">
  <advance width="414"/>
  <unicode hex="002B"/>
  <outline>
    <contour>
      <point x="378" y="303" type="line"/>
      <point x="236" y="303" type="line"/>
      <point x="236" y="149" type="line"/>
      <point x="178" y="149" type="line"/>
      <point x="178" y="303" type="line"/>
      <point x="36" y="303" type="line"/>
      <point x="36" y="358" type="line"/>
      <point x="178" y="358" type="line"/>
      <point x="178" y="512" type="line"/>
      <point x="236" y="512" type="line"/>
      <point x="236" y="358" type="line"/>
      <point x="378" y="358" type="line"/>
    </contour>
  </outline>
</glyph>
<glyph name="comma" format="1">
  <advance width="141"/>
  <unicode hex="002C"/>
  <outline>
    <contour>
      <point x="99" y="27" type="line" smooth="yes"/>
      <point x="99" y="-23"/>
      <point x="74" y="-77"/>
      <point x="44" y="-113" type="curve"/>
      <point x="8" y="-113" type="line"/>
      <point x="33" y="-73"/>
      <point x="42" y="-33"/>
      <point x="42" y="30" type="curve" smooth="yes"/>
      <point x="42" y="83" type="line"/>
      <point x="99" y="83" type="line"/>
    </contour>
  </outline>
</glyph>
<glyph name="slash" format="1">
  <advance width="271"/>
  <unicode hex="002F"/>
  <outline>
    <contour>
      <point x="230" y="730" type="line"/>
      <point x="93" y="0" type="line"/>
      <point x="40" y="0" type="line"/>
      <point x="178" y="730" type="line"/>
    </contour>
  </outline>
</glyph>
<glyph name="zero" format="1">
  <advance width="417"/>
  <unicode hex="0030"/>
  <outline>
    <contour>
      <point x="385" y="370" type="curve" smooth="yes"/>
      <point x="385" y="181"/>
      <point x="343" y="-12"/>
      <point x="210" y="-12" type="curve" smooth="yes"/>
      <point x="79" y="-12"/>
      <point x="32" y="177"/>
      <point x="32" y="364" type="curve" smooth="yes"/>
      <point x="32" y="546"/>
      <point x="74" y="742"/>
      <point x="209" y="742" type="curve" smooth="yes"/>
      <point x="345" y="742"/>
      <point x="385" y="548"/>
    </contour>
    <contour>
      <point x="323" y="368" type="curve" smooth="yes"/>
      <point x="322" y="522"/>
      <point x="293" y="684"/>
      <point x="209" y="684" type="curve" smooth="yes"/>
      <point x="122" y="684"/>
      <point x="94" y="520"/>
      <point x="94" y="365" type="curve" smooth="yes"/>
      <point x="94" y="211"/>
      <point x="123" y="46"/>
      <point x="208" y="46" type="curve" smooth="yes"/>
      <point x="294" y="46"/>
      <point x="324" y="213"/>
    </contour>
  </outline>
</glyph>
<glyph name="one" format="1">
  <advance width="207"/>
  <unicode hex="0031"/>
  <outline>
    <contour>
      <point x="147" y="0" type="line"/>
      <point x="88" y="0" type="line"/>
      <point x="88" y="614" type="line"/>
      <point x="78" y="590"/>
      <point x="47" y="566"/>
      <point x="16" y="556" type="curve"/>
      <point x="16" y="614" type="line"/>
      <point x="54" y="629"/>
      <point x="94" y="682"/>
      <point x="101" y="730" type="curve"/>
      <point x="147" y="730" type="line"/>
    </contour>
  </outline>
</glyph>
<glyph name="two" format="1">
  <advance width="352"/>
  <unicode hex="0032"/>
  <outline>
    <contour>
      <point x="312" y="0" type="line"/>
      <point x="24" y="0" type="line"/>
      <point x="220" y="454" type="line" smooth="yes"/>
      <point x="236" y="492"/>
      <point x="249" y="537"/>
      <point x="249" y="583" type="curve" smooth="yes"/>
      <point x="249" y="631"/>
      <point x="226" y="684"/>
      <point x="168" y="684" type="curve" smooth="yes"/>
      <point x="115" y="684"/>
      <point x="85" y="637"/>
      <point x="85" y="585" type="curve" smooth="yes"/>
      <point x="85" y="561" type="line"/>
      <point x="26" y="561" type="line"/>
      <point x="26" y="583" type="line" smooth="yes"/>
      <point x="26" y="670"/>
      <point x="81" y="742"/>
      <point x="169" y="742" type="curve" smooth="yes"/>
      <point x="265" y="742"/>
      <point x="311" y="663"/>
      <point x="311" y="584" type="curve" smooth="yes"/>
      <point x="311" y="542"/>
      <point x="302" y="501"/>
      <point x="283" y="457" type="curve" smooth="yes"/>
      <point x="111" y="56" type="line"/>
      <point x="312" y="56" type="line"/>
    </contour>
  </outline>
</glyph>
<glyph name="three" format="1">
  <advance width="362"/>
  <unicode hex="0033"/>
  <outline>
    <contour>
      <point x="330" y="195" type="curve" smooth="yes"/>
      <point x="330" y="78"/>
      <point x="260" y="-9"/>
      <point x="157" y="-9" type="curve" smooth="yes"/>
      <point x="101" y="-9"/>
      <point x="46" y="19"/>
      <point x="11" y="63" type="curve"/>
      <point x="52" y="105" type="line"/>
      <point x="84" y="70"/>
      <point x="117" y="48"/>
      <point x="160" y="48" type="curve" smooth="yes"/>
      <point x="227" y="48"/>
      <point x="268" y="104"/>
      <point x="268" y="190" type="curve" smooth="yes"/>
      <point x="268" y="274"/>
      <point x="238" y="357"/>
      <point x="129" y="357" type="curve" smooth="yes"/>
      <point x="116" y="357" type="line"/>
      <point x="116" y="412" type="line"/>
      <point x="128" y="412" type="line" smooth="yes"/>
      <point x="215" y="412"/>
      <point x="249" y="479"/>
      <point x="249" y="563" type="curve" smooth="yes"/>
      <point x="249" y="633"/>
      <point x="214" y="684"/>
      <point x="164" y="684" type="curve" smooth="yes"/>
      <point x="118" y="684"/>
      <point x="88" y="642"/>
      <point x="73" y="594" type="curve"/>
      <point x="20" y="616" type="line"/>
      <point x="40" y="685"/>
      <point x="95" y="742"/>
      <point x="167" y="742" type="curve" smooth="yes"/>
      <point x="244" y="742"/>
      <point x="311" y="668"/>
      <point x="311" y="567" type="curve" smooth="yes"/>
      <point x="311" y="481"/>
      <point x="275" y="412"/>
      <point x="210" y="385" type="curve"/>
      <point x="284" y="365"/>
      <point x="330" y="297"/>
    </contour>
  </outline>
</glyph>
<glyph name="four" format="1">
  <advance width="370"/>
  <unicode hex="0034"/>
  <outline>
    <contour>
      <point x="346" y="186" type="line"/>
      <point x="285" y="186" type="line"/>
      <point x="285" y="2" type="line"/>
      <point x="227" y="2" type="line"/>
      <point x="227" y="186" type="line"/>
      <point x="14" y="186" type="line"/>
      <point x="14" y="227" type="line"/>
      <point x="243" y="730" type="line"/>
      <point x="285" y="730" type="line"/>
      <point x="285" y="240" type="line"/>
      <point x="346" y="240" type="line"/>
    </contour>
    <contour>
      <point x="227" y="240" type="line"/>
      <point x="227" y="581" type="line"/>
      <point x="73" y="240" type="line"/>
    </contour>
  </outline>
</glyph>
<glyph name="five" format="1">
  <advance width="363"/>
  <unicode hex="0035"/>
  <outline>
    <contour>
      <point x="329" y="244" type="curve" smooth="yes"/>
      <point x="329" y="90"/>
      <point x="271" y="-9"/>
      <point x="162" y="-9" type="curve" smooth="yes"/>
      <point x="107" y="-9"/>
      <point x="63" y="18"/>
      <point x="31" y="59" type="curve"/>
      <point x="71" y="100" type="line"/>
      <point x="100" y="66"/>
      <point x="128" y="48"/>
      <point x="163" y="48" type="curve" smooth="yes"/>
      <point x="235" y="48"/>
      <point x="267" y="124"/>
      <point x="267" y="245" type="curve" smooth="yes"/>
      <point x="267" y="354"/>
      <point x="240" y="430"/>
      <point x="176" y="430" type="curve" smooth="yes"/>
      <point x="128" y="430"/>
      <point x="105" y="381"/>
      <point x="94" y="329" type="curve"/>
      <point x="47" y="340" type="line"/>
      <point x="57" y="730" type="line"/>
      <point x="291" y="730" type="line"/>
      <point x="291" y="674" type="line"/>
      <point x="110" y="674" type="line"/>
      <point x="105" y="442" type="line"/>
      <point x="126" y="473"/>
      <point x="152" y="488"/>
      <point x="188" y="488" type="curve" smooth="yes"/>
      <point x="286" y="488"/>
      <point x="329" y="381"/>
    </contour>
  </outline>
</glyph>
<glyph name="six" format="1">
  <advance width="371"/>
  <unicode hex="0036"/>
  <outline>
    <contour>
      <point x="341" y="229" type="curve" smooth="yes"/>
      <point x="341" y="106"/>
      <point x="297" y="-12"/>
      <point x="187" y="-12" type="curve" smooth="yes"/>
      <point x="88" y="-12"/>
      <point x="32" y="91"/>
      <point x="32" y="235" type="curve" smooth="yes"/>
      <point x="32" y="300"/>
      <point x="49" y="393"/>
      <point x="69" y="450" type="curve" smooth="yes"/>
      <point x="165" y="730" type="line"/>
      <point x="229" y="730" type="line"/>
      <point x="120" y="418" type="line"/>
      <point x="144" y="443"/>
      <point x="166" y="457"/>
      <point x="199" y="457" type="curve" smooth="yes"/>
      <point x="296" y="457"/>
      <point x="341" y="338"/>
    </contour>
    <contour>
      <point x="279" y="226" type="curve" smooth="yes"/>
      <point x="279" y="313"/>
      <point x="255" y="399"/>
      <point x="185" y="399" type="curve" smooth="yes"/>
      <point x="119" y="399"/>
      <point x="94" y="312"/>
      <point x="94" y="231" type="curve" smooth="yes"/>
      <point x="94" y="132"/>
      <point x="117" y="46"/>
      <point x="190" y="46" type="curve" smooth="yes"/>
      <point x="253" y="46"/>
      <point x="279" y="135"/>
    </contour>
  </outline>
</glyph>
<glyph name="seven" format="1">
  <advance width="332"/>
  <unicode hex="0037"/>
  <outline>
    <contour>
      <point x="309" y="730" type="line"/>
      <point x="109" y="0" type="line"/>
      <point x="50" y="0" type="line"/>
      <point x="234" y="674" type="line"/>
      <point x="30" y="674" type="line"/>
      <point x="30" y="730" type="line"/>
    </contour>
  </outline>
</glyph>
<glyph name="eight" format="1">
  <advance width="378"/>
  <unicode hex="0038"/>
  <outline>
    <contour>
      <point x="352" y="198" type="curve" smooth="yes"/>
      <point x="352" y="75"/>
      <point x="287" y="-12"/>
      <point x="188" y="-12" type="curve" smooth="yes"/>
      <point x="89" y="-12"/>
      <point x="26" y="76"/>
      <point x="26" y="198" type="curve" smooth="yes"/>
      <point x="26" y="286"/>
      <point x="68" y="362"/>
      <point x="117" y="383" type="curve"/>
      <point x="74" y="412"/>
      <point x="50" y="474"/>
      <point x="50" y="548" type="curve" smooth="yes"/>
      <point x="50" y="655"/>
      <point x="103" y="742"/>
      <point x="189" y="742" type="curve" smooth="yes"/>
      <point x="277" y="742"/>
      <point x="328" y="655"/>
      <point x="328" y="547" type="curve" smooth="yes"/>
      <point x="328" y="474"/>
      <point x="305" y="412"/>
      <point x="261" y="383" type="curve"/>
      <point x="310" y="362"/>
      <point x="352" y="286"/>
    </contour>
    <contour>
      <point x="266" y="544" type="curve" smooth="yes"/>
      <point x="266" y="609"/>
      <point x="248" y="684"/>
      <point x="189" y="684" type="curve" smooth="yes"/>
      <point x="131" y="684"/>
      <point x="112" y="612"/>
      <point x="112" y="544" type="curve" smooth="yes"/>
      <point x="112" y="478"/>
      <point x="131" y="412"/>
      <point x="190" y="412" type="curve" smooth="yes"/>
      <point x="250" y="412"/>
      <point x="266" y="478"/>
    </contour>
    <contour>
      <point x="290" y="198" type="curve" smooth="yes"/>
      <point x="290" y="276"/>
      <point x="252" y="355"/>
      <point x="189" y="355" type="curve" smooth="yes"/>
      <point x="126" y="355"/>
      <point x="88" y="276"/>
      <point x="88" y="198" type="curve" smooth="yes"/>
      <point x="88" y="117"/>
      <point x="116" y="46"/>
      <point x="190" y="46" type="curve" smooth="yes"/>
      <point x="264" y="46"/>
      <point x="290" y="117"/>
    </contour>
  </outline>
</glyph>
<glyph name="nine" format="1">
  <advance width="371"/>
  <unicode hex="0039"/>
  <outline>
    <contour>
      <point x="337" y="499" type="curve" smooth="yes"/>
      <point x="337" y="420"/>
      <point x="320" y="338"/>
      <point x="299" y="276" type="curve" smooth="yes"/>
      <point x="204" y="-9" type="line"/>
      <point x="150" y="13" type="line"/>
      <point x="250" y="305" type="line"/>
      <point x="228" y="282"/>
      <point x="206" y="269"/>
      <point x="172" y="269" type="curve" smooth="yes"/>
      <point x="75" y="269"/>
      <point x="28" y="388"/>
      <point x="28" y="504" type="curve" smooth="yes"/>
      <point x="28" y="632"/>
      <point x="79" y="742"/>
      <point x="183" y="742" type="curve" smooth="yes"/>
      <point x="281" y="742"/>
      <point x="337" y="635"/>
    </contour>
    <contour>
      <point x="275" y="503" type="curve" smooth="yes"/>
      <point x="275" y="599"/>
      <point x="250" y="684"/>
      <point x="179" y="684" type="curve" smooth="yes"/>
      <point x="115" y="684"/>
      <point x="90" y="596"/>
      <point x="90" y="507" type="curve" smooth="yes"/>
      <point x="90" y="422"/>
      <point x="111" y="327"/>
      <point x="183" y="327" type="curve" smooth="yes"/>
      <point x="253" y="327"/>
      <point x="275" y="426"/>
    </contour>
  </outline>
</glyph>
<glyph name="colon" format="1">
  <advance width="141"/>
  <unicode hex="003A"/>
  <outline>
    <contour>
      <point x="100" y="327" type="line"/>
      <point x="42" y="327" type="line"/>
      <point x="42" y="408" type="line"/>
      <point x="100" y="408" type="line"/>
    </contour>
    <contour>
      <point x="100" y="0" type="line"/>
      <point x="42" y="0" type="line"/>
      <point x="42" y="81" type="line"/>
      <point x="100" y="81" type="line"/>
    </contour>
  </outline>
</glyph>
<glyph name="semicolon" format="1">
  <advance width="141"/>
  <unicode hex="003B"/>
  <outline>
    <contour>
      <point x="100" y="327" type="line"/>
      <point x="42" y="327" type="line"/>
      <point x="42" y="408" type="line"/>
      <point x="100" y="408" type="line"/>
    </contour>
    <contour>
      <point x="99" y="27" type="line" smooth="yes"/>
      <point x="99" y="-23"/>
      <point x="74" y="-77"/>
      <point x="44" y="-113" type="curve"/>
      <point x="8" y="-113" type="line"/>
      <point x="33" y="-73"/>
      <point x="42" y="-33"/>
      <point x="42" y="30" type="curve" smooth="yes"/>
      <point x="42" y="83" type="line"/>
      <point x="99" y="83" type="line"/>
    </contour>
  </outline>
</glyph>
<glyph name="less" format="1">
  <advance width="323"/>
  <unicode hex="003C"/>
  <outline>
    <contour>
      <point x="283" y="116" type="line"/>
      <point x="34" y="302" type="line"/>
      <point x="34" y="347" type="line"/>
      <point x="283" y="531" type="line"/>
      <point x="283" y="467" type="line"/>
      <point x="88" y="325" type="line"/>
      <point x="283" y="182" type="line"/>
    </contour>
  </outline>
</glyph>
<glyph name="equal" format="1">
  <advance width="423"/>
  <unicode hex="003D"/>
  <outline>
    <contour>
      <point x="374" y="392" type="line"/>
      <point x="49" y="392" type="line"/>
      <point x="49" y="449" type="line"/>
      <point x="374" y="449" type="line"/>
    </contour>
    <contour>
      <point x="374" y="217" type="line"/>
      <point x="49" y="217" type="line"/>
      <point x="49" y="274" type="line"/>
      <point x="374" y="274" type="line"/>
    </contour>
  </outline>
</glyph>
<glyph name="greater" format="1">
  <advance width="323"/>
  <unicode hex="003E"/>
  <outline>
    <contour>
      <point x="289" y="301" type="line"/>
      <point x="40" y="117" type="line"/>
      <point x="40" y="180" type="line"/>
      <point x="235" y="323" type="line"/>
      <point x="40" y="466" type="line"/>
      <point x="40" y="531" type="line"/>
      <point x="289" y="345" type="line"/>
    </contour>
  </outline>
</glyph>
<glyph name="question" format="1">
  <advance width="298"/>
  <unicode hex="003F"/>
  <outline>
    <contour>
      <point x="268" y="600" type="curve" smooth="yes"/>
      <point x="268" y="535"/>
      <point x="241" y="467"/>
      <point x="207" y="396" type="curve" smooth="yes"/>
      <point x="183" y="344"/>
      <point x="162" y="273"/>
      <point x="162" y="205" type="curve" smooth="yes"/>
      <point x="162" y="135" type="line"/>
      <point x="111" y="135" type="line"/>
      <point x="111" y="196" type="line" smooth="yes"/>
      <point x="111" y="280"/>
      <point x="129" y="356"/>
      <point x="154" y="410" type="curve" smooth="yes"/>
      <point x="186" y="480"/>
      <point x="206" y="538"/>
      <point x="206" y="593" type="curve" smooth="yes"/>
      <point x="206" y="647"/>
      <point x="180" y="684"/>
      <point x="142" y="684" type="curve" smooth="yes"/>
      <point x="100" y="684"/>
      <point x="78" y="658"/>
      <point x="64" y="614" type="curve"/>
      <point x="19" y="642" type="line"/>
      <point x="35" y="699"/>
      <point x="78" y="742"/>
      <point x="142" y="742" type="curve" smooth="yes"/>
      <point x="220" y="742"/>
      <point x="268" y="680"/>
    </contour>
    <contour>
      <point x="166" y="0" type="line"/>
      <point x="107" y="0" type="line"/>
      <point x="107" y="81" type="line"/>
      <point x="166" y="81" type="line"/>
    </contour>
  </outline>
</glyph>
<glyph name="A" format="1">
  <advance width="465"/>
  <unicode hex="0041"/>
  <outline>
    <contour>
      <point x="452" y="0" type="line"/>
      <point x="391" y="0" type="line"/>
      <point x="343" y="170" type="line"/>
      <point x="123" y="170" type="line"/>
      <point x="75" y="0" type="line"/>
      <point x="15" y="0" type="line"/>
      <point x="224" y="743" type="line"/>
      <point x="243" y="743" type="line"/>
    </contour>
    <contour>
      <point x="327" y="222" type="line"/>
      <point x="233" y="577" type="line"/>
      <point x="139" y="222" type="line"/>
    </contour>
  </outline>
</glyph>
<glyph name="B" format="1">
  <advance width="397"/>
  <unicode hex="0042"/>
  <outline>
    <contour>
      <point x="366" y="201" type="curve" smooth="yes"/>
      <point x="366" y="75"/>
      <point x="287" y="0"/>
      <point x="147" y="0" type="curve" smooth="yes"/>
      <point x="59" y="0" type="line"/>
      <point x="59" y="730" type="line"/>
      <point x="149" y="730" type="line" smooth="yes"/>
      <point x="260" y="730"/>
      <point x="346" y="660"/>
      <point x="346" y="544" type="curve" smooth="yes"/>
      <point x="346" y="456"/>
      <point x="311" y="400"/>
      <point x="245" y="374" type="curve"/>
      <point x="307" y="360"/>
      <point x="366" y="292"/>
    </contour>
    <contour>
      <point x="286" y="544" type="curve" smooth="yes"/>
      <point x="286" y="620"/>
      <point x="228" y="674"/>
      <point x="149" y="674" type="curve" smooth="yes"/>
      <point x="119" y="674" type="line"/>
      <point x="119" y="397" type="line"/>
      <point x="160" y="397" type="line" smooth="yes"/>
      <point x="245" y="397"/>
      <point x="286" y="460"/>
    </contour>
    <contour>
      <point x="304" y="198" type="curve" smooth="yes"/>
      <point x="304" y="295"/>
      <point x="236" y="342"/>
      <point x="165" y="342" type="curve" smooth="yes"/>
      <point x="119" y="342" type="line"/>
      <point x="119" y="56" type="line"/>
      <point x="152" y="56" type="line" smooth="yes"/>
      <point x="256" y="56"/>
      <point x="304" y="111"/>
    </contour>
  </outline>
</glyph>
<glyph name="C" format="1">
  <advance width="381"/>
  <unicode hex="0043"/>
  <outline>
    <contour>
      <point x="360" y="39" type="line"/>
      <point x="333" y="12"/>
      <point x="295" y="-12"/>
      <point x="248" y="-12" type="curve" smooth="yes"/>
      <point x="99" y="-12"/>
      <point x="34" y="171"/>
      <point x="34" y="368" type="curve" smooth="yes"/>
      <point x="34" y="562"/>
      <point x="100" y="742"/>
      <point x="243" y="742" type="curve" smooth="yes"/>
      <point x="293" y="742"/>
      <point x="330" y="717"/>
      <point x="356" y="691" type="curve"/>
      <point x="328" y="644" type="line"/>
      <point x="307" y="667"/>
      <point x="282" y="684"/>
      <point x="243" y="684" type="curve" smooth="yes"/>
      <point x="141" y="684"/>
      <point x="96" y="528"/>
      <point x="96" y="368" type="curve" smooth="yes"/>
      <point x="96" y="216"/>
      <point x="133" y="46"/>
      <point x="249" y="46" type="curve" smooth="yes"/>
      <point x="287" y="46"/>
      <point x="310" y="63"/>
      <point x="332" y="86" type="curve"/>
    </contour>
  </outline>
</glyph>
<glyph name="D" format="1">
  <advance width="448"/>
  <unicode hex="0044"/>
  <outline>
    <contour>
      <point x="412" y="372" type="curve" smooth="yes"/>
      <point x="412" y="144"/>
      <point x="318" y="0"/>
      <point x="143" y="0" type="curve" smooth="yes"/>
      <point x="59" y="0" type="line"/>
      <point x="59" y="730" type="line"/>
      <point x="146" y="730" type="line" smooth="yes"/>
      <point x="335" y="730"/>
      <point x="412" y="566"/>
    </contour>
    <contour>
      <point x="350" y="373" type="curve" smooth="yes"/>
      <point x="350" y="547"/>
      <point x="285" y="674"/>
      <point x="149" y="674" type="curve" smooth="yes"/>
      <point x="119" y="674" type="line"/>
      <point x="119" y="56" type="line"/>
      <point x="154" y="56" type="line" smooth="yes"/>
      <point x="290" y="56"/>
      <point x="350" y="183"/>
    </contour>
  </outline>
</glyph>
<glyph name="E" format="1">
  <advance width="367"/>
  <unicode hex="0045"/>
  <outline>
    <contour>
      <point x="332" y="0" type="line"/>
      <point x="59" y="0" type="line"/>
      <point x="59" y="730" type="line"/>
      <point x="323" y="730" type="line"/>
      <point x="323" y="674" type="line"/>
      <point x="119" y="674" type="line"/>
      <point x="119" y="392" type="line"/>
      <point x="305" y="392" type="line"/>
      <point x="305" y="336" type="line"/>
      <point x="119" y="336" type="line"/>
      <point x="119" y="56" type="line"/>
      <point x="332" y="56" type="line"/>
    </contour>
  </outline>
</glyph>
<glyph name="F" format="1">
  <advance width="329"/>
  <unicode hex="0046"/>
  <outline>
    <contour>
      <point x="298" y="674" type="line"/>
      <point x="119" y="674" type="line"/>
      <point x="119" y="390" type="line"/>
      <point x="281" y="390" type="line"/>
      <point x="281" y="334" type="line"/>
      <point x="119" y="334" type="line"/>
      <point x="119" y="0" type="line"/>
      <point x="59" y="0" type="line"/>
      <point x="59" y="730" type="line"/>
      <point x="298" y="730" type="line"/>
    </contour>
  </outline>
</glyph>
<glyph name="G" format="1">
  <advance width="442"/>
  <unicode hex="0047"/>
  <outline>
    <contour>
      <point x="397" y="58" type="line"/>
      <point x="360" y="18"/>
      <point x="312" y="-12"/>
      <point x="250" y="-12" type="curve" smooth="yes"/>
      <point x="97" y="-12"/>
      <point x="34" y="176"/>
      <point x="34" y="369" type="curve" smooth="yes"/>
      <point x="34" y="558"/>
      <point x="97" y="742"/>
      <point x="241" y="742" type="curve" smooth="yes"/>
      <point x="308" y="742"/>
      <point x="342" y="715"/>
      <point x="374" y="675" type="curve"/>
      <point x="336" y="630" type="line"/>
      <point x="310" y="666"/>
      <point x="286" y="684"/>
      <point x="242" y="684" type="curve" smooth="yes"/>
      <point x="139" y="684"/>
      <point x="96" y="526"/>
      <point x="96" y="369" type="curve" smooth="yes"/>
      <point x="96" y="211"/>
      <point x="137" y="46"/>
      <point x="248" y="46" type="curve" smooth="yes"/>
      <point x="291" y="46"/>
      <point x="316" y="61"/>
      <point x="338" y="81" type="curve"/>
      <point x="338" y="324" type="line"/>
      <point x="247" y="324" type="line"/>
      <point x="247" y="380" type="line"/>
      <point x="397" y="380" type="line"/>
    </contour>
  </outline>
</glyph>
<glyph name="H" format="1">
  <advance width="468"/>
  <unicode hex="0048"/>
  <outline>
    <contour>
      <point x="409" y="0" type="line"/>
      <point x="349" y="0" type="line"/>
      <point x="349" y="340" type="line"/>
      <point x="119" y="340" type="line"/>
      <point x="119" y="0" type="line"/>
      <point x="59" y="0" type="line"/>
      <point x="59" y="730" type="line"/>
      <point x="119" y="730" type="line"/>
      <point x="119" y="396" type="line"/>
      <point x="349" y="396" type="line"/>
      <point x="349" y="730" type="line"/>
      <point x="409" y="730" type="line"/>
    </contour>
  </outline>
</glyph>
<glyph name="I" format="1">
  <advance width="184"/>
  <unicode hex="0049"/>
  <outline>
    <contour>
      <point x="122" y="0" type="line"/>
      <point x="62" y="0" type="line"/>
      <point x="62" y="730" type="line"/>
      <point x="122" y="730" type="line"/>
    </contour>
  </outline>
</glyph>
<glyph name="J" format="1">
  <advance width="216"/>
  <unicode hex="004A"/>
  <outline>
    <contour>
      <point x="160" y="146" type="line" smooth="yes"/>
      <point x="160" y="43"/>
      <point x="92" y="-6"/>
      <point x="24" y="-9" type="curve"/>
      <point x="24" y="47" type="line"/>
      <point x="65" y="51"/>
      <point x="100" y="84"/>
      <point x="100" y="140" type="curve" smooth="yes"/>
      <point x="100" y="730" type="line"/>
      <point x="160" y="730" type="line"/>
    </contour>
  </outline>
</glyph>
<glyph name="K" format="1">
  <advance width="409"/>
  <unicode hex="004B"/>
  <outline>
    <contour>
      <point x="394" y="730" type="line"/>
      <point x="196" y="437" type="line"/>
      <point x="393" y="0" type="line"/>
      <point x="328" y="0" type="line"/>
      <point x="155" y="383" type="line"/>
      <point x="119" y="331" type="line"/>
      <point x="119" y="0" type="line"/>
      <point x="59" y="0" type="line"/>
      <point x="59" y="730" type="line"/>
      <point x="119" y="730" type="line"/>
      <point x="119" y="422" type="line"/>
      <point x="327" y="730" type="line"/>
    </contour>
  </outline>
</glyph>
<glyph name="L" format="1">
  <advance width="335"/>
  <unicode hex="004C"/>
  <outline>
    <contour>
      <point x="317" y="0" type="line"/>
      <point x="59" y="0" type="line"/>
      <point x="59" y="730" type="line"/>
      <point x="119" y="730" type="line"/>
      <point x="119" y="56" type="line"/>
      <point x="317" y="56" type="line"/>
    </contour>
  </outline>
</glyph>
<glyph name="M" format="1">
  <advance width="558"/>
  <unicode hex="004D"/>
  <outline>
    <contour>
      <point x="498" y="0" type="line"/>
      <point x="439" y="0" type="line"/>
      <point x="439" y="569" type="line"/>
      <point x="292" y="214" type="line"/>
      <point x="265" y="214" type="line"/>
      <point x="118" y="569" type="line"/>
      <point x="118" y="0" type="line"/>
      <point x="59" y="0" type="line"/>
      <point x="59" y="730" type="line"/>
      <point x="110" y="730" type="line"/>
      <point x="279" y="321" type="line"/>
      <point x="449" y="730" type="line"/>
      <point x="498" y="730" type="line"/>
    </contour>
  </outline>
</glyph>
<glyph name="N" format="1">
  <advance width="475"/>
  <unicode hex="004E"/>
  <outline>
    <contour>
      <point x="416" y="0" type="line"/>
      <point x="370" y="0" type="line"/>
      <point x="118" y="564" type="line"/>
      <point x="118" y="0" type="line"/>
      <point x="59" y="0" type="line"/>
      <point x="59" y="730" type="line"/>
      <point x="107" y="730" type="line"/>
      <point x="357" y="169" type="line"/>
      <point x="357" y="730" type="line"/>
      <point x="416" y="730" type="line"/>
    </contour>
  </outline>
</glyph>
<glyph name="O" format="1">
  <advance width="491"/>
  <unicode hex="004F"/>
  <outline>
    <contour>
      <point x="458" y="366" type="curve" smooth="yes"/>
      <point x="458" y="175"/>
      <point x="398" y="-12"/>
      <point x="246" y="-12" type="curve" smooth="yes"/>
      <point x="96" y="-12"/>
      <point x="34" y="175"/>
      <point x="34" y="366" type="curve" smooth="yes"/>
      <point x="34" y="559"/>
      <point x="96" y="742"/>
      <point x="246" y="742" type="curve" smooth="yes"/>
      <point x="401" y="742"/>
      <point x="458" y="559"/>
    </contour>
    <contour>
      <point x="396" y="366" type="curve" smooth="yes"/>
      <point x="396" y="528"/>
      <point x="360" y="684"/>
      <point x="246" y="684" type="curve" smooth="yes"/>
      <point x="133" y="684"/>
      <point x="96" y="528"/>
      <point x="96" y="366" type="curve" smooth="yes"/>
      <point x="96" y="208"/>
      <point x="133" y="46"/>
      <point x="246" y="46" type="curve" smooth="yes"/>
      <point x="360" y="46"/>
      <point x="396" y="208"/>
    </contour>
  </outline>
</glyph>
<glyph name="P" format="1">
  <advance width="375"/>
  <unicode hex="0050"/>
  <outline>
    <contour>
      <point x="353" y="516" type="curve" smooth="yes"/>
      <point x="353" y="406"/>
      <point x="272" y="302"/>
      <point x="142" y="302" type="curve" smooth="yes"/>
      <point x="119" y="302" type="line"/>
      <point x="119" y="0" type="line"/>
      <point x="59" y="0" type="line"/>
      <point x="59" y="730" type="line"/>
      <point x="143" y="730" type="line" smooth="yes"/>
      <point x="249" y="730"/>
      <point x="353" y="664"/>
    </contour>
    <contour>
      <point x="291" y="516" type="curve" smooth="yes"/>
      <point x="291" y="623"/>
      <point x="229" y="674"/>
      <point x="143" y="674" type="curve" smooth="yes"/>
      <point x="119" y="674" type="line"/>
      <point x="119" y="358" type="line"/>
      <point x="143" y="358" type="line" smooth="yes"/>
      <point x="234" y="358"/>
      <point x="291" y="426"/>
    </contour>
  </outline>
</glyph>
<glyph name="Q" format="1">
  <advance width="491"/>
  <unicode hex="0051"/>
  <outline>
    <contour>
      <point x="458" y="366" type="curve" smooth="yes"/>
      <point x="458" y="248"/>
      <point x="435" y="137"/>
      <point x="385" y="65" type="curve"/>
      <point x="402" y="53"/>
      <point x="422" y="42"/>
      <point x="442" y="32" type="curve"/>
      <point x="397" y="-17" type="line"/>
      <point x="380" y="-7"/>
      <point x="362" y="7"/>
      <point x="345" y="23" type="curve"/>
      <point x="318" y="1"/>
      <point x="285" y="-12"/>
      <point x="246" y="-12" type="curve" smooth="yes"/>
      <point x="96" y="-12"/>
      <point x="34" y="175"/>
      <point x="34" y="366" type="curve" smooth="yes"/>
      <point x="34" y="559"/>
      <point x="96" y="742"/>
      <point x="246" y="742" type="curve" smooth="yes"/>
      <point x="401" y="742"/>
      <point x="458" y="559"/>
    </contour>
    <contour>
      <point x="396" y="366" type="curve" smooth="yes"/>
      <point x="396" y="528"/>
      <point x="360" y="684"/>
      <point x="246" y="684" type="curve" smooth="yes"/>
      <point x="133" y="684"/>
      <point x="96" y="528"/>
      <point x="96" y="366" type="curve" smooth="yes"/>
      <point x="96" y="208"/>
      <point x="133" y="46"/>
      <point x="246" y="46" type="curve" smooth="yes"/>
      <point x="269" y="46"/>
      <point x="289" y="52"/>
      <point x="306" y="66" type="curve"/>
      <point x="292" y="83"/>
      <point x="281" y="101"/>
      <point x="273" y="115" type="curve"/>
      <point x="305" y="152" type="line"/>
      <point x="315" y="136"/>
      <point x="326" y="120"/>
      <point x="342" y="104" type="curve"/>
      <point x="380" y="162"/>
      <point x="396" y="265"/>
    </contour>
  </outline>
</glyph>
<glyph name="R" format="1">
  <advance width="389"/>
  <unicode hex="0052"/>
  <outline>
    <contour>
      <point x="372" y="0" type="line"/>
      <point x="306" y="0" type="line"/>
      <point x="119" y="343" type="line"/>
      <point x="119" y="0" type="line"/>
      <point x="59" y="0" type="line"/>
      <point x="59" y="730" type="line"/>
      <point x="146" y="730" type="line" smooth="yes"/>
      <point x="260" y="730"/>
      <point x="353" y="660"/>
      <point x="353" y="529" type="curve" smooth="yes"/>
      <point x="353" y="417"/>
      <point x="282" y="342"/>
      <point x="191" y="329" type="curve"/>
    </contour>
    <contour>
      <point x="291" y="529" type="curve" smooth="yes"/>
      <point x="291" y="629"/>
      <point x="233" y="674"/>
      <point x="146" y="674" type="curve" smooth="yes"/>
      <point x="119" y="674" type="line"/>
      <point x="119" y="369" type="line"/>
      <point x="148" y="369" type="line" smooth="yes"/>
      <point x="234" y="369"/>
      <point x="291" y="427"/>
    </contour>
  </outline>
</glyph>
<glyph name="S" format="1">
  <advance width="358"/>
  <unicode hex="0053"/>
  <outline>
    <contour>
      <point x="325" y="160" type="curve" smooth="yes"/>
      <point x="325" y="68"/>
      <point x="262" y="-12"/>
      <point x="172" y="-12" type="curve" smooth="yes"/>
      <point x="110" y="-12"/>
      <point x="65" y="17"/>
      <point x="31" y="66" type="curve"/>
      <point x="72" y="108" type="line"/>
      <point x="99" y="69"/>
      <point x="131" y="46"/>
      <point x="174" y="46" type="curve" smooth="yes"/>
      <point x="232" y="46"/>
      <point x="264" y="100"/>
      <point x="264" y="156" type="curve" smooth="yes"/>
      <point x="264" y="221"/>
      <point x="228" y="276"/>
      <point x="161" y="350" type="curve" smooth="yes"/>
      <point x="78" y="440"/>
      <point x="38" y="495"/>
      <point x="38" y="576" type="curve" smooth="yes"/>
      <point x="38" y="667"/>
      <point x="100" y="742"/>
      <point x="183" y="742" type="curve" smooth="yes"/>
      <point x="245" y="742"/>
      <point x="283" y="712"/>
      <point x="310" y="674" type="curve"/>
      <point x="267" y="634" type="line"/>
      <point x="243" y="665"/>
      <point x="219" y="684"/>
      <point x="183" y="684" type="curve" smooth="yes"/>
      <point x="131" y="684"/>
      <point x="99" y="638"/>
      <point x="99" y="579" type="curve" smooth="yes"/>
      <point x="99" y="525"/>
      <point x="131" y="477"/>
      <point x="197" y="405" type="curve" smooth="yes"/>
      <point x="281" y="313"/>
      <point x="325" y="251"/>
    </contour>
  </outline>
</glyph>
<glyph name="T" format="1">
  <advance width="342"/>
  <unicode hex="0054"/>
  <outline>
    <contour>
      <point x="323" y="674" type="line"/>
      <point x="201" y="674" type="line"/>
      <point x="201" y="0" type="line"/>
      <point x="141" y="0" type="line"/>
      <point x="141" y="674" type="line"/>
      <point x="18" y="674" type="line"/>
      <point x="18" y="730" type="line"/>
      <point x="323" y="730" type="line"/>
    </contour>
  </outline>
</glyph>
<glyph name="U" format="1">
  <advance width="472"/>
  <unicode hex="0055"/>
  <outline>
    <contour>
      <point x="417" y="182" type="line" smooth="yes"/>
      <point x="417" y="73"/>
      <point x="333" y="-12"/>
      <point x="235" y="-12" type="curve" smooth="yes"/>
      <point x="138" y="-12"/>
      <point x="55" y="72"/>
      <point x="55" y="182" type="curve" smooth="yes"/>
      <point x="55" y="730" type="line"/>
      <point x="115" y="730" type="line"/>
      <point x="115" y="205" type="line" smooth="yes"/>
      <point x="115" y="106"/>
      <point x="163" y="48"/>
      <point x="236" y="48" type="curve" smooth="yes"/>
      <point x="310" y="48"/>
      <point x="358" y="106"/>
      <point x="358" y="205" type="curve" smooth="yes"/>
      <point x="358" y="730" type="line"/>
      <point x="417" y="730" type="line"/>
    </contour>
  </outline>
</glyph>
<glyph name="V" format="1">
  <advance width="447"/>
  <unicode hex="0056"/>
  <outline>
    <contour>
      <point x="432" y="730" type="line"/>
      <point x="243" y="0" type="line"/>
      <point x="203" y="0" type="line"/>
      <point x="15" y="730" type="line"/>
      <point x="77" y="730" type="line"/>
      <point x="224" y="145" type="line"/>
      <point x="371" y="730" type="line"/>
    </contour>
  </outline>
</glyph>
<glyph name="W" format="1">
  <advance width="676"/>
  <unicode hex="0057"/>
  <outline>
    <contour>
      <point x="660" y="730" type="line"/>
      <point x="509" y="0" type="line"/>
      <point x="474" y="0" type="line"/>
      <point x="338" y="558" type="line"/>
      <point x="202" y="0" type="line"/>
      <point x="167" y="0" type="line"/>
      <point x="16" y="730" type="line"/>
      <point x="78" y="730" type="line"/>
      <point x="188" y="151" type="line"/>
      <point x="323" y="730" type="line"/>
      <point x="353" y="730" type="line"/>
      <point x="488" y="151" type="line"/>
      <point x="599" y="730" type="line"/>
    </contour>
  </outline>
</glyph>
<glyph name="X" format="1">
  <advance width="435"/>
  <unicode hex="0058"/>
  <outline>
    <contour>
      <point x="419" y="0" type="line"/>
      <point x="357" y="0" type="line"/>
      <point x="218" y="330" type="line"/>
      <point x="77" y="0" type="line"/>
      <point x="17" y="0" type="line"/>
      <point x="186" y="392" type="line"/>
      <point x="42" y="730" type="line"/>
      <point x="105" y="730" type="line"/>
      <point x="218" y="456" type="line"/>
      <point x="332" y="730" type="line"/>
      <point x="393" y="730" type="line"/>
      <point x="249" y="392" type="line"/>
    </contour>
  </outline>
</glyph>
<glyph name="Y" format="1">
  <advance width="412"/>
  <unicode hex="0059"/>
  <outline>
    <contour>
      <point x="401" y="730" type="line"/>
      <point x="236" y="345" type="line"/>
      <point x="236" y="0" type="line"/>
      <point x="176" y="0" type="line"/>
      <point x="176" y="345" type="line"/>
      <point x="11" y="730" type="line"/>
      <point x="76" y="730" type="line"/>
      <point x="207" y="411" type="line"/>
      <point x="337" y="730" type="line"/>
    </contour>
  </outline>
</glyph>
<glyph name="Z" format="1">
  <advance width="394"/>
  <unicode hex="005A"/>
  <outline>
    <contour>
      <point x="375" y="730" type="line"/>
      <point x="97" y="55" type="line"/>
      <point x="356" y="55" type="line"/>
      <point x="356" y="0" type="line"/>
      <point x="14" y="0" type="line"/>
      <point x="293" y="675" type="line"/>
      <point x="50" y="675" type="line"/>
      <point x="50" y="730" type="line"/>
    </contour>
  </outline>
</glyph>
<glyph name="bracketleft" format="1">
  <advance width="250"/>
  <unicode hex="005B"/>
  <outline>
    <contour>
      <point x="213" y="-179" type="line"/>
      <point x="65" y="-179" type="line"/>
      <point x="65" y="730" type="line"/>
      <point x="213" y="730" type="line"/>
      <point x="213" y="681" type="line"/>
      <point x="120" y="681" type="line"/>
      <point x="120" y="-130" type="line"/>
      <point x="213" y="-130" type="line"/>
    </contour>
  </outline>
</glyph>
<glyph name="backslash" format="1">
  <advance width="271"/>
  <unicode hex="005C"/>
  <outline>
    <contour>
      <point x="230" y="0" type="line"/>
      <point x="178" y="0" type="line"/>
      <point x="40" y="730" type="line"/>
      <point x="93" y="730" type="line"/>
    </contour>
  </outline>
</glyph>
<glyph name="bracketright" format="1">
  <advance width="250"/>
  <unicode hex="005D"/>
  <outline>
    <contour>
      <point x="185" y="-179" type="line"/>
      <point x="37" y="-179" type="line"/>
      <point x="37" y="-130" type="line"/>
      <point x="130" y="-130" type="line"/>
      <point x="130" y="681" type="line"/>
      <point x="37" y="681" type="line"/>
      <point x="37" y="730" type="line"/>
      <point x="185" y="730" type="line"/>
    </contour>
  </outline>
</glyph>
<glyph name="asciicircum" format="1">
  <advance width="431"/>
  <unicode hex="005E"/>
  <outline>
    <contour>
      <point x="400" y="400" type="line"/>
      <point x="333" y="400" type="line"/>
      <point x="214" y="662" type="line"/>
      <point x="97" y="400" type="line"/>
      <point x="30" y="400" type="line"/>
      <point x="189" y="730" type="line"/>
      <point x="241" y="730" type="line"/>
    </contour>
  </outline>
</glyph>
<glyph name="underscore" format="1">
  <advance width="419"/>
  <unicode hex="005F"/>
  <outline>
    <contour>
      <point x="420" y="-115" type="line"/>
      <point x="-2" y="-115" type="line"/>
      <point x="-2" y="-68" type="line"/>
      <point x="420" y="-68" type="line"/>
    </contour>
  </outline>
</glyph>
<glyph name="grave" format="1">
  <advance width="373"/>
  <unicode hex="0060"/>
  <outline>
    <contour>
      <point x="254" y="486" type="line"/>
      <point x="196" y="486" type="line"/>
      <point x="125" y="621" type="line"/>
      <point x="183" y="621" type="line"/>
    </contour>
  </outline>
</glyph>
<glyph name="a" format="1">
  <advance width="325"/>
  <unicode hex="0061"/>
  <outline>
    <contour>
      <point x="284" y="0" type="line"/>
      <point x="227" y="0" type="line"/>
      <point x="227" y="30" type="line"/>
      <point x="202" y="3"/>
      <point x="176" y="-12"/>
      <point x="139" y="-12" type="curve" smooth="yes"/>
      <point x="76" y="-12"/>
      <point x="27" y="48"/>
      <point x="27" y="120" type="curve" smooth="yes"/>
      <point x="27" y="199"/>
      <point x="96" y="262"/>
      <point x="195" y="262" type="curve" smooth="yes"/>
      <point x="227" y="262" type="line"/>
      <point x="227" y="301" type="line" smooth="yes"/>
      <point x="227" y="344"/>
      <point x="210" y="368"/>
      <point x="163" y="368" type="curve" smooth="yes"/>
      <point x="128" y="368"/>
      <point x="95" y="355"/>
      <point x="66" y="336" type="curve"/>
      <point x="45" y="384" type="line"/>
      <point x="84" y="408"/>
      <point x="117" y="420"/>
      <point x="163" y="420" type="curve" smooth="yes"/>
      <point x="242" y="420"/>
      <point x="284" y="382"/>
      <point x="284" y="306" type="curve" smooth="yes"/>
    </contour>
    <contour>
      <point x="227" y="82" type="curve"/>
      <point x="227" y="213" type="line"/>
      <point x="203" y="213" type="line" smooth="yes"/>
      <point x="137" y="213"/>
      <point x="86" y="180"/>
      <point x="86" y="124" type="curve" smooth="yes"/>
      <point x="86" y="77"/>
      <point x="109" y="39"/>
      <point x="148" y="39" type="curve" smooth="yes"/>
      <point x="178" y="39"/>
      <point x="200" y="52"/>
    </contour>
  </outline>
</glyph>
<glyph name="b" format="1">
  <advance width="345"/>
  <unicode hex="0062"/>
  <outline>
    <contour>
      <point x="319" y="207" type="curve" smooth="yes"/>
      <point x="319" y="92"/>
      <point x="278" y="-12"/>
      <point x="188" y="-12" type="curve" smooth="yes"/>
      <point x="145" y="-12"/>
      <point x="118" y="16"/>
      <point x="103" y="47" type="curve"/>
      <point x="103" y="0" type="line"/>
      <point x="46" y="0" type="line"/>
      <point x="46" y="730" type="line"/>
      <point x="103" y="730" type="line"/>
      <point x="103" y="358" type="line"/>
      <point x="123" y="398"/>
      <point x="151" y="420"/>
      <point x="188" y="420" type="curve" smooth="yes"/>
      <point x="281" y="420"/>
      <point x="319" y="315"/>
    </contour>
    <contour>
      <point x="260" y="209" type="curve" smooth="yes"/>
      <point x="260" y="287"/>
      <point x="241" y="370"/>
      <point x="182" y="370" type="curve" smooth="yes"/>
      <point x="122" y="370"/>
      <point x="102" y="283"/>
      <point x="102" y="208" type="curve" smooth="yes"/>
      <point x="102" y="126"/>
      <point x="122" y="38"/>
      <point x="182" y="38" type="curve" smooth="yes"/>
      <point x="243" y="38"/>
      <point x="260" y="129"/>
    </contour>
  </outline>
</glyph>
<glyph name="c" format="1">
  <advance width="294"/>
  <unicode hex="0063"/>
  <outline>
    <contour>
      <point x="279" y="66" type="line"/>
      <point x="253" y="19"/>
      <point x="221" y="-12"/>
      <point x="164" y="-12" type="curve" smooth="yes"/>
      <point x="71" y="-12"/>
      <point x="26" y="86"/>
      <point x="26" y="203" type="curve" smooth="yes"/>
      <point x="26" y="322"/>
      <point x="70" y="420"/>
      <point x="164" y="420" type="curve" smooth="yes"/>
      <point x="223" y="420"/>
      <point x="250" y="386"/>
      <point x="269" y="350" type="curve"/>
      <point x="228" y="318" type="line"/>
      <point x="212" y="349"/>
      <point x="193" y="368"/>
      <point x="164" y="368" type="curve" smooth="yes"/>
      <point x="103" y="368"/>
      <point x="84" y="282"/>
      <point x="84" y="203" type="curve" smooth="yes"/>
      <point x="84" y="126"/>
      <point x="104" y="40"/>
      <point x="164" y="40" type="curve" smooth="yes"/>
      <point x="196" y="40"/>
      <point x="220" y="64"/>
      <point x="237" y="96" type="curve"/>
    </contour>
  </outline>
</glyph>
<glyph name="d" format="1">
  <advance width="345"/>
  <unicode hex="0064"/>
  <outline>
    <contour>
      <point x="299" y="0" type="line"/>
      <point x="242" y="0" type="line"/>
      <point x="242" y="50" type="line"/>
      <point x="226" y="13"/>
      <point x="196" y="-12"/>
      <point x="157" y="-12" type="curve" smooth="yes"/>
      <point x="67" y="-12"/>
      <point x="27" y="92"/>
      <point x="27" y="208" type="curve" smooth="yes"/>
      <point x="27" y="315"/>
      <point x="65" y="420"/>
      <point x="157" y="420" type="curve" smooth="yes"/>
      <point x="199" y="420"/>
      <point x="223" y="396"/>
      <point x="242" y="362" type="curve"/>
      <point x="242" y="730" type="line"/>
      <point x="299" y="730" type="line"/>
    </contour>
    <contour>
      <point x="243" y="209" type="curve" smooth="yes"/>
      <point x="243" y="284"/>
      <point x="223" y="370"/>
      <point x="164" y="370" type="curve" smooth="yes"/>
      <point x="104" y="370"/>
      <point x="85" y="286"/>
      <point x="85" y="208" type="curve" smooth="yes"/>
      <point x="85" y="128"/>
      <point x="103" y="38"/>
      <point x="164" y="38" type="curve" smooth="yes"/>
      <point x="223" y="38"/>
      <point x="243" y="127"/>
    </contour>
  </outline>
</glyph>
<glyph name="e" format="1">
  <advance width="313"/>
  <unicode hex="0065"/>
  <outline>
    <contour>
      <point x="290" y="195" type="line"/>
      <point x="83" y="195" type="line"/>
      <point x="84" y="113"/>
      <point x="107" y="40"/>
      <point x="167" y="40" type="curve" smooth="yes"/>
      <point x="203" y="40"/>
      <point x="231" y="61"/>
      <point x="252" y="91" type="curve"/>
      <point x="289" y="57" type="line"/>
      <point x="259" y="15"/>
      <point x="219" y="-12"/>
      <point x="167" y="-12" type="curve" smooth="yes"/>
      <point x="74" y="-12"/>
      <point x="26" y="85"/>
      <point x="26" y="205" type="curve" smooth="yes"/>
      <point x="26" y="321"/>
      <point x="70" y="420"/>
      <point x="159" y="420" type="curve" smooth="yes"/>
      <point x="247" y="420"/>
      <point x="290" y="319"/>
      <point x="290" y="232" type="curve" smooth="yes"/>
    </contour>
    <contour>
      <point x="232" y="240" type="line"/>
      <point x="232" y="252" type="line" smooth="yes"/>
      <point x="232" y="306"/>
      <point x="204" y="368"/>
      <point x="159" y="368" type="curve" smooth="yes"/>
      <point x="114" y="368"/>
      <point x="87" y="311"/>
      <point x="84" y="240" type="curve"/>
    </contour>
  </outline>
</glyph>
<glyph name="f" format="1">
  <advance width="176"/>
  <unicode hex="0066"/>
  <outline>
    <contour>
      <point x="159" y="357" type="line"/>
      <point x="115" y="357" type="line"/>
      <point x="115" y="0" type="line"/>
      <point x="58" y="0" type="line"/>
      <point x="58" y="357" type="line"/>
      <point x="14" y="357" type="line"/>
      <point x="14" y="408" type="line"/>
      <point x="58" y="408" type="line"/>
      <point x="58" y="615" type="line" smooth="yes"/>
      <point x="58" y="697"/>
      <point x="101" y="733"/>
      <point x="158" y="733" type="curve"/>
      <point x="158" y="676" type="line"/>
      <point x="130" y="676"/>
      <point x="115" y="654"/>
      <point x="115" y="610" type="curve" smooth="yes"/>
      <point x="115" y="408" type="line"/>
      <point x="159" y="408" type="line"/>
    </contour>
  </outline>
</glyph>
<glyph name="i" format="1">
  <advance width="155"/>
  <unicode hex="0069"/>
  <outline>
    <contour>
      <point x="106" y="509" type="line"/>
      <point x="49" y="509" type="line"/>
      <point x="49" y="602" type="line"/>
      <point x="106" y="602" type="line"/>
    </contour>
    <contour>
      <point x="106" y="0" type="line"/>
      <point x="49" y="0" type="line"/>
      <point x="49" y="408" type="line"/>
      <point x="106" y="408" type="line"/>
    </contour>
  </outline>
</glyph>
<glyph name="j" format="1">
  <advance width="155"/>
  <unicode hex="006A"/>
  <outline>
    <contour>
      <point x="106" y="509" type="line"/>
      <point x="49" y="509" type="line"/>
      <point x="49" y="602" type="line"/>
      <point x="106" y="602" type="line"/>
    </contour>
    <contour>
      <point x="106" y="-74" type="line" smooth="yes"/>
      <point x="106" y="-136"/>
      <point x="72" y="-179"/>
      <point x="6" y="-179" type="curve"/>
      <point x="6" y="-124" type="line"/>
      <point x="36" y="-124"/>
      <point x="49" y="-104"/>
      <point x="49" y="-68" type="curve" smooth="yes"/>
      <point x="49" y="408" type="line"/>
      <point x="106" y="408" type="line"/>
    </contour>
  </outline>
</glyph>
<glyph name="k" format="1">
  <advance width="323"/>
  <unicode hex="006B"/>
  <outline>
    <contour>
      <point x="310" y="0" type="line"/>
      <point x="246" y="0" type="line"/>
      <point x="151" y="201" type="line"/>
      <point x="103" y="130" type="line"/>
      <point x="103" y="0" type="line"/>
      <point x="46" y="0" type="line"/>
      <point x="46" y="730" type="line"/>
      <point x="103" y="730" type="line"/>
      <point x="103" y="215" type="line"/>
      <point x="231" y="408" type="line"/>
      <point x="295" y="408" type="line"/>
      <point x="189" y="253" type="line"/>
    </contour>
  </outline>
</glyph>
<glyph name="l" format="1">
  <advance width="155"/>
  <unicode hex="006C"/>
  <outline>
    <contour>
      <point x="106" y="0" type="line"/>
      <point x="49" y="0" type="line"/>
      <point x="49" y="730" type="line"/>
      <point x="106" y="730" type="line"/>
    </contour>
  </outline>
</glyph>
<glyph name="m" format="1">
  <advance width="502"/>
  <unicode hex="006D"/>
  <outline>
    <contour>
      <point x="460" y="0" type="line"/>
      <point x="404" y="0" type="line"/>
      <point x="404" y="296" type="line" smooth="yes"/>
      <point x="404" y="338"/>
      <point x="384" y="370"/>
      <point x="350" y="370" type="curve" smooth="yes"/>
      <point x="313" y="370"/>
      <point x="282" y="334"/>
      <point x="282" y="285" type="curve" smooth="yes"/>
      <point x="282" y="0" type="line"/>
      <point x="225" y="0" type="line"/>
      <point x="225" y="296" type="line" smooth="yes"/>
      <point x="225" y="338"/>
      <point x="205" y="370"/>
      <point x="171" y="370" type="curve" smooth="yes"/>
      <point x="134" y="370"/>
      <point x="103" y="334"/>
      <point x="103" y="285" type="curve" smooth="yes"/>
      <point x="103" y="0" type="line"/>
      <point x="46" y="0" type="line"/>
      <point x="46" y="408" type="line"/>
      <point x="103" y="408" type="line"/>
      <point x="103" y="369" type="line"/>
      <point x="121" y="397"/>
      <point x="146" y="420"/>
      <point x="184" y="420" type="curve" smooth="yes"/>
      <point x="229" y="420"/>
      <point x="256" y="396"/>
      <point x="269" y="361" type="curve"/>
      <point x="288" y="395"/>
      <point x="321" y="420"/>
      <point x="359" y="420" type="curve" smooth="yes"/>
      <point x="423" y="420"/>
      <point x="460" y="370"/>
      <point x="460" y="302" type="curve" smooth="yes"/>
    </contour>
  </outline>
</glyph>
<glyph name="n" format="1">
  <advance width="337"/>
  <unicode hex="006E"/>
  <outline>
    <contour>
      <point x="296" y="0" type="line"/>
      <point x="239" y="0" type="line"/>
      <point x="239" y="280" type="line" smooth="yes"/>
      <point x="239" y="330"/>
      <point x="221" y="370"/>
      <point x="180" y="370" type="curve" smooth="yes"/>
      <point x="131" y="370"/>
      <point x="103" y="327"/>
      <point x="103" y="274" type="curve" smooth="yes"/>
      <point x="103" y="0" type="line"/>
      <point x="46" y="0" type="line"/>
      <point x="46" y="408" type="line"/>
      <point x="103" y="408" type="line"/>
      <point x="103" y="370" type="line"/>
      <point x="122" y="398"/>
      <point x="149" y="420"/>
      <point x="191" y="420" type="curve" smooth="yes"/>
      <point x="257" y="420"/>
      <point x="296" y="364"/>
      <point x="296" y="298" type="curve" smooth="yes"/>
    </contour>
  </outline>
</glyph>
<glyph name="o" format="1">
  <advance width="330"/>
  <unicode hex="006F"/>
  <outline>
    <contour>
      <point x="304" y="204" type="curve" smooth="yes"/>
      <point x="304" y="92"/>
      <point x="261" y="-12"/>
      <point x="165" y="-12" type="curve" smooth="yes"/>
      <point x="69" y="-12"/>
      <point x="26" y="92"/>
      <point x="26" y="204" type="curve" smooth="yes"/>
      <point x="26" y="318"/>
      <point x="69" y="420"/>
      <point x="165" y="420" type="curve" smooth="yes"/>
      <point x="261" y="420"/>
      <point x="304" y="318"/>
    </contour>
    <contour>
      <point x="245" y="204" type="curve" smooth="yes"/>
      <point x="245" y="288"/>
      <point x="225" y="368"/>
      <point x="165" y="368" type="curve" smooth="yes"/>
      <point x="105" y="368"/>
      <point x="84" y="288"/>
      <point x="84" y="204" type="curve" smooth="yes"/>
      <point x="84" y="119"/>
      <point x="105" y="40"/>
      <point x="165" y="40" type="curve" smooth="yes"/>
      <point x="225" y="40"/>
      <point x="245" y="119"/>
    </contour>
  </outline>
</glyph>
<glyph name="p" format="1">
  <advance width="345"/>
  <unicode hex="0070"/>
  <outline>
    <contour>
      <point x="319" y="200" type="curve" smooth="yes"/>
      <point x="319" y="92"/>
      <point x="281" y="-12"/>
      <point x="188" y="-12" type="curve" smooth="yes"/>
      <point x="147" y="-12"/>
      <point x="122" y="12"/>
      <point x="103" y="46" type="curve"/>
      <point x="103" y="-179" type="line"/>
      <point x="46" y="-179" type="line"/>
      <point x="46" y="408" type="line"/>
      <point x="103" y="408" type="line"/>
      <point x="103" y="357" type="line"/>
      <point x="119" y="394"/>
      <point x="149" y="420"/>
      <point x="188" y="420" type="curve" smooth="yes"/>
      <point x="278" y="420"/>
      <point x="319" y="316"/>
    </contour>
    <contour>
      <point x="260" y="200" type="curve" smooth="yes"/>
      <point x="260" y="280"/>
      <point x="243" y="370"/>
      <point x="182" y="370" type="curve" smooth="yes"/>
      <point x="122" y="370"/>
      <point x="102" y="280"/>
      <point x="102" y="199" type="curve" smooth="yes"/>
      <point x="102" y="123"/>
      <point x="122" y="38"/>
      <point x="182" y="38" type="curve" smooth="yes"/>
      <point x="241" y="38"/>
      <point x="260" y="122"/>
    </contour>
  </outline>
</glyph>
<glyph name="q" format="1">
  <advance width="345"/>
  <unicode hex="0071"/>
  <outline>
    <contour>
      <point x="299" y="-179" type="line"/>
      <point x="242" y="-179" type="line"/>
      <point x="242" y="49" type="line"/>
      <point x="222" y="9"/>
      <point x="194" y="-12"/>
      <point x="157" y="-12" type="curve" smooth="yes"/>
      <point x="65" y="-12"/>
      <point x="27" y="93"/>
      <point x="27" y="201" type="curve" smooth="yes"/>
      <point x="27" y="316"/>
      <point x="67" y="420"/>
      <point x="157" y="420" type="curve" smooth="yes"/>
      <point x="200" y="420"/>
      <point x="227" y="392"/>
      <point x="242" y="361" type="curve"/>
      <point x="242" y="408" type="line"/>
      <point x="299" y="408" type="line"/>
    </contour>
    <contour>
      <point x="243" y="201" type="curve" smooth="yes"/>
      <point x="243" y="283"/>
      <point x="223" y="370"/>
      <point x="164" y="370" type="curve" smooth="yes"/>
      <point x="103" y="370"/>
      <point x="85" y="280"/>
      <point x="85" y="201" type="curve" smooth="yes"/>
      <point x="85" y="122"/>
      <point x="104" y="38"/>
      <point x="164" y="38" type="curve" smooth="yes"/>
      <point x="223" y="38"/>
      <point x="243" y="126"/>
    </contour>
  </outline>
</glyph>
<glyph name="r" format="1">
  <advance width="217"/>
  <unicode hex="0072"/>
  <outline>
    <contour>
      <point x="201" y="355" type="line"/>
      <point x="152" y="355"/>
      <point x="103" y="302"/>
      <point x="103" y="228" type="curve" smooth="yes"/>
      <point x="103" y="0" type="line"/>
      <point x="46" y="0" type="line"/>
      <point x="46" y="408" type="line"/>
      <point x="103" y="408" type="line"/>
      <point x="103" y="349" type="line"/>
      <point x="118" y="380"/>
      <point x="155" y="417"/>
      <point x="201" y="417" type="curve"/>
    </contour>
  </outline>
</glyph>
<glyph name="s" format="1">
  <advance width="268"/>
  <unicode hex="0073"/>
  <outline>
    <contour>
      <point x="249" y="102" type="curve" smooth="yes"/>
      <point x="249" y="32"/>
      <point x="192" y="-12"/>
      <point x="130" y="-12" type="curve" smooth="yes"/>
      <point x="85" y="-12"/>
      <point x="54" y="5"/>
      <point x="26" y="35" type="curve"/>
      <point x="58" y="75" type="line"/>
      <point x="78" y="56"/>
      <point x="100" y="40"/>
      <point x="132" y="40" type="curve" smooth="yes"/>
      <point x="169" y="40"/>
      <point x="190" y="70"/>
      <point x="190" y="98" type="curve" smooth="yes"/>
      <point x="190" y="135"/>
      <point x="165" y="159"/>
      <point x="114" y="195" type="curve" smooth="yes"/>
      <point x="61" y="232"/>
      <point x="29" y="265"/>
      <point x="29" y="319" type="curve" smooth="yes"/>
      <point x="29" y="377"/>
      <point x="79" y="420"/>
      <point x="137" y="420" type="curve" smooth="yes"/>
      <point x="183" y="420"/>
      <point x="208" y="405"/>
      <point x="233" y="381" type="curve"/>
      <point x="202" y="340" type="line"/>
      <point x="185" y="356"/>
      <point x="167" y="368"/>
      <point x="140" y="368" type="curve" smooth="yes"/>
      <point x="112" y="368"/>
      <point x="87" y="347"/>
      <point x="87" y="320" type="curve" smooth="yes"/>
      <point x="87" y="289"/>
      <point x="109" y="265"/>
      <point x="157" y="231" type="curve" smooth="yes"/>
      <point x="211" y="193"/>
      <point x="249" y="156"/>
    </contour>
  </outline>
</glyph>
<glyph name="t" format="1">
  <advance width="181"/>
  <unicode hex="0074"/>
  <outline>
    <contour>
      <point x="156" y="-6" type="line"/>
      <point x="90" y="-6"/>
      <point x="53" y="24"/>
      <point x="53" y="104" type="curve" smooth="yes"/>
      <point x="53" y="357" type="line"/>
      <point x="13" y="357" type="line"/>
      <point x="13" y="408" type="line"/>
      <point x="53" y="408" type="line"/>
      <point x="53" y="606" type="line"/>
      <point x="110" y="606" type="line"/>
      <point x="110" y="408" type="line"/>
      <point x="156" y="408" type="line"/>
      <point x="156" y="357" type="line"/>
      <point x="110" y="357" type="line"/>
      <point x="110" y="111" type="line" smooth="yes"/>
      <point x="110" y="71"/>
      <point x="125" y="50"/>
      <point x="156" y="50" type="curve"/>
    </contour>
  </outline>
</glyph>
<glyph name="u" format="1">
  <advance width="337"/>
  <unicode hex="0075"/>
  <outline>
    <contour>
      <point x="291" y="0" type="line"/>
      <point x="234" y="0" type="line"/>
      <point x="234" y="38" type="line"/>
      <point x="215" y="10"/>
      <point x="188" y="-12"/>
      <point x="146" y="-12" type="curve" smooth="yes"/>
      <point x="80" y="-12"/>
      <point x="41" y="43"/>
      <point x="41" y="110" type="curve" smooth="yes"/>
      <point x="41" y="408" type="line"/>
      <point x="98" y="408" type="line"/>
      <point x="98" y="127" type="line" smooth="yes"/>
      <point x="98" y="78"/>
      <point x="116" y="38"/>
      <point x="157" y="38" type="curve" smooth="yes"/>
      <point x="206" y="38"/>
      <point x="234" y="81"/>
      <point x="234" y="134" type="curve" smooth="yes"/>
      <point x="234" y="408" type="line"/>
      <point x="291" y="408" type="line"/>
    </contour>
  </outline>
</glyph>
<glyph name="v" format="1">
  <advance width="308"/>
  <unicode hex="0076"/>
  <outline>
    <contour>
      <point x="298" y="408" type="line"/>
      <point x="156" y="-16" type="line"/>
      <point x="152" y="-16" type="line"/>
      <point x="10" y="408" type="line"/>
      <point x="68" y="408" type="line"/>
      <point x="156" y="118" type="line"/>
      <point x="241" y="408" type="line"/>
    </contour>
  </outline>
</glyph>
<glyph name="w" format="1">
  <advance width="445"/>
  <unicode hex="0077"/>
  <outline>
    <contour>
      <point x="432" y="408" type="line"/>
      <point x="330" y="-16" type="line"/>
      <point x="326" y="-16" type="line"/>
      <point x="222" y="280" type="line"/>
      <point x="119" y="-16" type="line"/>
      <point x="115" y="-16" type="line"/>
      <point x="13" y="408" type="line"/>
      <point x="70" y="408" type="line"/>
      <point x="130" y="139" type="line"/>
      <point x="222" y="427" type="line"/>
      <point x="316" y="139" type="line"/>
      <point x="376" y="408" type="line"/>
    </contour>
  </outline>
</glyph>
<glyph name="x" format="1">
  <advance width="313"/>
  <unicode hex="0078"/>
  <outline>
    <contour>
      <point x="301" y="0" type="line"/>
      <point x="240" y="0" type="line"/>
      <point x="157" y="163" type="line"/>
      <point x="72" y="0" type="line"/>
      <point x="12" y="0" type="line"/>
      <point x="126" y="217" type="line"/>
      <point x="28" y="408" type="line"/>
      <point x="88" y="408" type="line"/>
      <point x="157" y="270" type="line"/>
      <point x="226" y="408" type="line"/>
      <point x="285" y="408" type="line"/>
      <point x="186" y="218" type="line"/>
    </contour>
  </outline>
</glyph>
<glyph name="y" format="1">
  <advance width="305"/>
  <unicode hex="0079"/>
  <outline>
    <contour>
      <point x="294" y="408" type="line"/>
      <point x="150" y="-104" type="line" smooth="yes"/>
      <point x="136" y="-154"/>
      <point x="103" y="-178"/>
      <point x="65" y="-178" type="curve" smooth="yes"/>
      <point x="51" y="-178"/>
      <point x="39" y="-175"/>
      <point x="28" y="-171" type="curve"/>
      <point x="28" y="-118" type="line"/>
      <point x="40" y="-122"/>
      <point x="51" y="-123"/>
      <point x="64" y="-123" type="curve" smooth="yes"/>
      <point x="77" y="-123"/>
      <point x="94" y="-116"/>
      <point x="104" y="-82" type="curve" smooth="yes"/>
      <point x="128" y="1" type="line"/>
      <point x="11" y="408" type="line"/>
      <point x="69" y="408" type="line"/>
      <point x="155" y="99" type="line"/>
      <point x="238" y="408" type="line"/>
    </contour>
  </outline>
</glyph>
<glyph name="z" format="1">
  <advance width="287"/>
  <unicode hex="007A"/>
  <outline>
    <contour>
      <point x="269" y="408" type="line"/>
      <point x="96" y="50" type="line"/>
      <point x="260" y="50" type="line"/>
      <point x="260" y="0" type="line"/>
      <point x="14" y="0" type="line"/>
      <point x="186" y="358" type="line"/>
      <point x="39" y="358" type="line"/>
      <point x="39" y="408" type="line"/>
    </contour>
  </outline>
</glyph>
<glyph name="braceleft" format="1">
  <advance width="241"/>
  <unicode hex="007B"/>
  <outline>
    <contour>
      <point x="219" y="-178" type="line"/>
      <point x="107" y="-131"/>
      <point x="90" y="-69"/>
      <point x="90" y="89" type="curve" smooth="yes"/>
      <point x="90" y="187"/>
      <point x="89" y="258"/>
      <point x="25" y="258" type="curve"/>
      <point x="25" y="313" type="line"/>
      <point x="89" y="313"/>
      <point x="90" y="383"/>
      <point x="90" y="482" type="curve" smooth="yes"/>
      <point x="90" y="639"/>
      <point x="107" y="701"/>
      <point x="219" y="749" type="curve"/>
      <point x="219" y="703" type="line"/>
      <point x="153" y="655"/>
      <point x="149" y="611"/>
      <point x="149" y="496" type="curve" smooth="yes"/>
      <point x="149" y="393"/>
      <point x="145" y="312"/>
      <point x="86" y="286" type="curve"/>
      <point x="145" y="258"/>
      <point x="149" y="177"/>
      <point x="149" y="75" type="curve" smooth="yes"/>
      <point x="149" y="-41"/>
      <point x="153" y="-85"/>
      <point x="219" y="-133" type="curve"/>
    </contour>
  </outline>
</glyph>
<glyph name="braceright" format="1">
  <advance width="241"/>
  <unicode hex="007D"/>
  <outline>
    <contour>
      <point x="216" y="258" type="line"/>
      <point x="152" y="258"/>
      <point x="151" y="187"/>
      <point x="151" y="89" type="curve" smooth="yes"/>
      <point x="151" y="-69"/>
      <point x="134" y="-131"/>
      <point x="22" y="-178" type="curve"/>
      <point x="22" y="-133" type="line"/>
      <point x="88" y="-85"/>
      <point x="92" y="-41"/>
      <point x="92" y="75" type="curve" smooth="yes"/>
      <point x="92" y="177"/>
      <point x="96" y="258"/>
      <point x="155" y="286" type="curve"/>
      <point x="96" y="312"/>
      <point x="92" y="393"/>
      <point x="92" y="496" type="curve" smooth="yes"/>
      <point x="92" y="611"/>
      <point x="88" y="655"/>
      <point x="22" y="703" type="curve"/>
      <point x="22" y="749" type="line"/>
      <point x="134" y="701"/>
      <point x="151" y="639"/>
      <point x="151" y="482" type="curve" smooth="yes"/>
      <point x="151" y="383"/>
      <point x="152" y="313"/>
      <point x="216" y="313" type="curve"/>
    </contour>
  </outline>
</glyph>
<glyph name="asciitilde" format="1">
  <advance width="478"/>
  <unicode hex="007E"/>
  <outline>
    <contour>
      <point x="426" y="435" type="line"/>
      <point x="420" y="338"/>
      <point x="389" y="291"/>
      <point x="321" y="291" type="curve" smooth="yes"/>
      <point x="281" y="291"/>
      <point x="251" y="315"/>
      <point x="223" y="339" type="curve" smooth="yes"/>
      <point x="198" y="361"/>
      <point x="175" y="381"/>
      <point x="150" y="381" type="curve" smooth="yes"/>
      <point x="118" y="381"/>
      <point x="108" y="349"/>
      <point x="104" y="295" type="curve"/>
      <point x="44" y="295" type="line"/>
      <point x="49" y="380"/>
      <point x="73" y="437"/>
      <point x="151" y="437" type="curve" smooth="yes"/>
      <point x="189" y="437"/>
      <point x="219" y="415"/>
      <point x="245" y="392" type="curve" smooth="yes"/>
      <point x="272" y="369"/>
      <point x="295" y="347"/>
      <point x="322" y="347" type="curve" smooth="yes"/>
      <point x="346" y="347"/>
      <point x="363" y="373"/>
      <point x="366" y="435" type="curve"/>
    </contour>
  </outline>
</glyph>
<glyph name="exclamdown" format="1">
  <advance width="184"/>
  <unicode hex="00A1"/>
  <outline>
    <contour>
      <point x="122" y="645" type="line"/>
      <point x="61" y="645" type="line"/>
      <point x="61" y="730" type="line"/>
      <point x="122" y="730" type="line"/>
    </contour>
    <contour>
      <point x="122" y="0" type="line"/>
      <point x="62" y="0" type="line"/>
      <point x="62" y="402" type="line"/>
      <point x="77" y="598" type="line"/>
      <point x="106" y="598" type="line"/>
      <point x="122" y="402" type="line"/>
    </contour>
  </outline>
</glyph>
<glyph name="cent" format="1">
  <advance width="302"/>
  <unicode hex="00A2"/>
  <outline>
    <contour>
      <point x="279" y="72" type="line"/>
      <point x="255" y="30"/>
      <point x="228" y="0"/>
      <point x="181" y="-5" type="curve"/>
      <point x="181" y="-79" type="line"/>
      <point x="143" y="-79" type="line"/>
      <point x="143" y="-4" type="line"/>
      <point x="64" y="9"/>
      <point x="26" y="99"/>
      <point x="26" y="203" type="curve" smooth="yes"/>
      <point x="26" y="308"/>
      <point x="63" y="399"/>
      <point x="143" y="412" type="curve"/>
      <point x="143" y="478" type="line"/>
      <point x="180" y="478" type="line"/>
      <point x="180" y="413" type="line"/>
      <point x="228" y="408"/>
      <point x="252" y="377"/>
      <point x="269" y="345" type="curve"/>
      <point x="228" y="312" type="line"/>
      <point x="212" y="343"/>
      <point x="193" y="362"/>
      <point x="164" y="362" type="curve" smooth="yes"/>
      <point x="103" y="362"/>
      <point x="84" y="277"/>
      <point x="84" y="203" type="curve" smooth="yes"/>
      <point x="84" y="131"/>
      <point x="104" y="46"/>
      <point x="164" y="46" type="curve" smooth="yes"/>
      <point x="196" y="46"/>
      <point x="220" y="69"/>
      <point x="237" y="102" type="curve"/>
    </contour>
  </outline>
</glyph>
<glyph name="sterling" format="1">
  <advance width="398"/>
  <unicode hex="00A3"/>
  <outline>
    <contour>
      <point x="216" y="95" type="curve"/>
      <point x="241" y="69"/>
      <point x="262" y="46"/>
      <point x="281" y="46" type="curve" smooth="yes"/>
      <point x="318" y="46"/>
      <point x="321" y="106"/>
      <point x="322" y="160" type="curve"/>
      <point x="379" y="160" type="line"/>
      <point x="382" y="76"/>
      <point x="365" y="-12"/>
      <point x="280" y="-12" type="curve" smooth="yes"/>
      <point x="248" y="-12"/>
      <point x="220" y="15"/>
      <point x="193" y="43" type="curve"/>
      <point x="173" y="10"/>
      <point x="143" y="-12"/>
      <point x="106" y="-12" type="curve" smooth="yes"/>
      <point x="55" y="-12"/>
      <point x="16" y="17"/>
      <point x="16" y="74" type="curve" smooth="yes"/>
      <point x="16" y="128"/>
      <point x="56" y="160"/>
      <point x="100" y="160" type="curve" smooth="yes"/>
      <point x="127" y="160"/>
      <point x="150" y="149"/>
      <point x="169" y="136" type="curve"/>
      <point x="170" y="150"/>
      <point x="171" y="165"/>
      <point x="171" y="180" type="curve" smooth="yes"/>
      <point x="171" y="237"/>
      <point x="147" y="294"/>
      <point x="135" y="318" type="curve"/>
      <point x="54" y="318" type="line"/>
      <point x="54" y="354" type="line"/>
      <point x="116" y="354" type="line"/>
      <point x="81" y="422"/>
      <point x="49" y="490"/>
      <point x="49" y="557" type="curve" smooth="yes"/>
      <point x="49" y="670"/>
      <point x="109" y="742"/>
      <point x="205" y="742" type="curve" smooth="yes"/>
      <point x="311" y="742"/>
      <point x="361" y="667"/>
      <point x="358" y="552" type="curve"/>
      <point x="296" y="552" type="line"/>
      <point x="297" y="622"/>
      <point x="270" y="687"/>
      <point x="206" y="687" type="curve" smooth="yes"/>
      <point x="152" y="687"/>
      <point x="111" y="641"/>
      <point x="111" y="561" type="curve" smooth="yes"/>
      <point x="111" y="491"/>
      <point x="149" y="431"/>
      <point x="185" y="354" type="curve"/>
      <point x="312" y="354" type="line"/>
      <point x="312" y="318" type="line"/>
      <point x="201" y="318" type="line"/>
      <point x="213" y="284"/>
      <point x="229" y="241"/>
      <point x="229" y="190" type="curve" smooth="yes"/>
      <point x="229" y="156"/>
      <point x="224" y="124"/>
    </contour>
    <contour>
      <point x="158" y="81" type="curve"/>
      <point x="140" y="99"/>
      <point x="123" y="110"/>
      <point x="104" y="110" type="curve" smooth="yes"/>
      <point x="78" y="110"/>
      <point x="66" y="89"/>
      <point x="66" y="74" type="curve" smooth="yes"/>
      <point x="66" y="49"/>
      <point x="82" y="31"/>
      <point x="108" y="31" type="curve" smooth="yes"/>
      <point x="131" y="31"/>
      <point x="148" y="50"/>
    </contour>
  </outline>
</glyph>
<glyph name="yen" format="1">
  <advance width="417"/>
  <unicode hex="00A5"/>
  <outline>
    <contour>
      <point x="402" y="730" type="line"/>
      <point x="238" y="350" type="line"/>
      <point x="238" y="267" type="line"/>
      <point x="349" y="267" type="line"/>
      <point x="349" y="230" type="line"/>
      <point x="238" y="230" type="line"/>
      <point x="238" y="156" type="line"/>
      <point x="349" y="156" type="line"/>
      <point x="349" y="119" type="line"/>
      <point x="238" y="119" type="line"/>
      <point x="238" y="0" type="line"/>
      <point x="175" y="0" type="line"/>
      <point x="175" y="119" type="line"/>
      <point x="66" y="119" type="line"/>
      <point x="66" y="156" type="line"/>
      <point x="175" y="156" type="line"/>
      <point x="175" y="230" type="line"/>
      <point x="66" y="230" type="line"/>
      <point x="66" y="267" type="line"/>
      <point x="175" y="267" type="line"/>
      <point x="175" y="350" type="line"/>
      <point x="11" y="730" type="line"/>
      <point x="77" y="730" type="line"/>
      <point x="197" y="450" type="line" smooth="yes"/>
      <point x="199" y="444"/>
      <point x="207" y="420"/>
      <point x="207" y="420" type="curve"/>
      <point x="207" y="420"/>
      <point x="216" y="444"/>
      <point x="219" y="451" type="curve" smooth="yes"/>
      <point x="337" y="730" type="line"/>
    </contour>
  </outline>
</glyph>
<glyph name="brokenbar" format="1">
  <advance width="185"/>
  <unicode hex="00A6"/>
  <outline>
    <contour>
      <point x="65" y="351" type="line"/>
      <point x="65" y="730" type="line"/>
      <point x="121" y="730" type="line"/>
      <point x="121" y="351" type="line"/>
    </contour>
    <contour>
      <point x="121" y="200" type="line"/>
      <point x="121" y="-179" type="line"/>
      <point x="65" y="-179" type="line"/>
      <point x="65" y="200" type="line"/>
    </contour>
  </outline>
</glyph>
<glyph name="section" format="1">
  <advance width="446"/>
  <unicode hex="00A7"/>
  <outline>
    <contour>
      <point x="419" y="266" type="curve" smooth="yes"/>
      <point x="419" y="197"/>
      <point x="379" y="125"/>
      <point x="326" y="80" type="curve"/>
      <point x="359" y="52"/>
      <point x="373" y="16"/>
      <point x="373" y="-35" type="curve" smooth="yes"/>
      <point x="373" y="-131"/>
      <point x="298" y="-183"/>
      <point x="214" y="-183" type="curve" smooth="yes"/>
      <point x="144" y="-183"/>
      <point x="103" y="-161"/>
      <point x="66" y="-125" type="curve"/>
      <point x="101" y="-78" type="line"/>
      <point x="127" y="-106"/>
      <point x="159" y="-128"/>
      <point x="216" y="-128" type="curve" smooth="yes"/>
      <point x="269" y="-128"/>
      <point x="308" y="-92"/>
      <point x="308" y="-40" type="curve" smooth="yes"/>
      <point x="308" y="27"/>
      <point x="276" y="50"/>
      <point x="183" y="91" type="curve" smooth="yes"/>
      <point x="97" y="129"/>
      <point x="25" y="180"/>
      <point x="25" y="293" type="curve" smooth="yes"/>
      <point x="25" y="359"/>
      <point x="64" y="430"/>
      <point x="121" y="476" type="curve"/>
      <point x="88" y="506"/>
      <point x="73" y="543"/>
      <point x="73" y="593" type="curve" smooth="yes"/>
      <point x="73" y="689"/>
      <point x="147" y="742"/>
      <point x="232" y="742" type="curve" smooth="yes"/>
      <point x="302" y="742"/>
      <point x="343" y="718"/>
      <point x="377" y="682" type="curve"/>
      <point x="343" y="637" type="line"/>
      <point x="318" y="664"/>
      <point x="286" y="686"/>
      <point x="230" y="686" type="curve" smooth="yes"/>
      <point x="177" y="686"/>
      <point x="139" y="651"/>
      <point x="139" y="600" type="curve" smooth="yes"/>
      <point x="139" y="533"/>
      <point x="168" y="506"/>
      <point x="262" y="468" type="curve" smooth="yes"/>
      <point x="354" y="430"/>
      <point x="419" y="384"/>
    </contour>
    <contour>
      <point x="354" y="266" type="curve" smooth="yes"/>
      <point x="354" y="345"/>
      <point x="298" y="378"/>
      <point x="235" y="411" type="curve" smooth="yes"/>
      <point x="208" y="425"/>
      <point x="188" y="433"/>
      <point x="168" y="447" type="curve"/>
      <point x="111" y="401"/>
      <point x="88" y="345"/>
      <point x="88" y="293" type="curve" smooth="yes"/>
      <point x="88" y="216"/>
      <point x="133" y="180"/>
      <point x="210" y="147" type="curve" smooth="yes"/>
      <point x="233" y="137"/>
      <point x="257" y="126"/>
      <point x="277" y="112" type="curve"/>
      <point x="324" y="149"/>
      <point x="354" y="202"/>
    </contour>
  </outline>
</glyph>
<glyph name="dieresis" format="1">
  <advance width="373"/>
  <unicode hex="00A8"/>
  <outline>
    <contour>
      <point x="273" y="487" type="line"/>
      <point x="218" y="487" type="line"/>
      <point x="218" y="582" type="line"/>
      <point x="273" y="582" type="line"/>
    </contour>
    <contour>
      <point x="155" y="487" type="line"/>
      <point x="100" y="487" type="line"/>
      <point x="100" y="582" type="line"/>
      <point x="155" y="582" type="line"/>
    </contour>
  </outline>
</glyph>
<glyph name="ordfeminine" format="1">
  <advance width="305"/>
  <unicode hex="00AA"/>
  <outline>
    <contour>
      <point x="257" y="400" type="line"/>
      <point x="208" y="400" type="line"/>
      <point x="208" y="424" type="line"/>
      <point x="186" y="402"/>
      <point x="161" y="391"/>
      <point x="132" y="391" type="curve" smooth="yes"/>
      <point x="80" y="391"/>
      <point x="38" y="436"/>
      <point x="38" y="499" type="curve" smooth="yes"/>
      <point x="38" y="569"/>
      <point x="100" y="618"/>
      <point x="180" y="618" type="curve" smooth="yes"/>
      <point x="208" y="618" type="line"/>
      <point x="208" y="640" type="line" smooth="yes"/>
      <point x="208" y="679"/>
      <point x="192" y="700"/>
      <point x="153" y="700" type="curve" smooth="yes"/>
      <point x="119" y="700"/>
      <point x="91" y="687"/>
      <point x="71" y="672" type="curve"/>
      <point x="51" y="712" type="line"/>
      <point x="81" y="731"/>
      <point x="109" y="745"/>
      <point x="152" y="745" type="curve" smooth="yes"/>
      <point x="218" y="745"/>
      <point x="257" y="711"/>
      <point x="257" y="644" type="curve" smooth="yes"/>
    </contour>
    <contour>
      <point x="265" y="292" type="line"/>
      <point x="37" y="292" type="line"/>
      <point x="37" y="336" type="line"/>
      <point x="265" y="336" type="line"/>
    </contour>
    <contour>
      <point x="208" y="467" type="curve"/>
      <point x="208" y="577" type="line"/>
      <point x="186" y="577" type="line" smooth="yes"/>
      <point x="130" y="577"/>
      <point x="87" y="549"/>
      <point x="87" y="501" type="curve" smooth="yes"/>
      <point x="87" y="461"/>
      <point x="108" y="435"/>
      <point x="140" y="435" type="curve" smooth="yes"/>
      <point x="163" y="435"/>
      <point x="184" y="441"/>
    </contour>
  </outline>
</glyph>
<glyph name="guillemotleft" format="1">
  <advance width="236"/>
  <unicode hex="00AB"/>
  <outline>
    <contour>
      <point x="215" y="59" type="line"/>
      <point x="125" y="173" type="line"/>
      <point x="125" y="230" type="line"/>
      <point x="216" y="344" type="line"/>
      <point x="216" y="275" type="line"/>
      <point x="161" y="201" type="line"/>
      <point x="215" y="129" type="line"/>
    </contour>
    <contour>
      <point x="107" y="59" type="line"/>
      <point x="18" y="173" type="line"/>
      <point x="18" y="230" type="line"/>
      <point x="109" y="344" type="line"/>
      <point x="109" y="275" type="line"/>
      <point x="54" y="201" type="line"/>
      <point x="107" y="129" type="line"/>
    </contour>
  </outline>
</glyph>
<glyph name="degree" format="1">
  <advance width="360"/>
  <unicode hex="00B0"/>
  <outline>
    <contour>
      <point x="335" y="587" type="curve" smooth="yes"/>
      <point x="335" y="501"/>
      <point x="266" y="432"/>
      <point x="180" y="432" type="curve" smooth="yes"/>
      <point x="94" y="432"/>
      <point x="25" y="501"/>
      <point x="25" y="587" type="curve" smooth="yes"/>
      <point x="25" y="673"/>
      <point x="94" y="742"/>
      <point x="180" y="742" type="curve" smooth="yes"/>
      <point x="266" y="742"/>
      <point x="335" y="673"/>
    </contour>
    <contour>
      <point x="280" y="587" type="curve" smooth="yes"/>
      <point x="280" y="644"/>
      <point x="237" y="690"/>
      <point x="180" y="690" type="curve" smooth="yes"/>
      <point x="123" y="690"/>
      <point x="80" y="644"/>
      <point x="80" y="587" type="curve" smooth="yes"/>
      <point x="80" y="530"/>
      <point x="123" y="484"/>
      <point x="180" y="484" type="curve" smooth="yes"/>
      <point x="237" y="484"/>
      <point x="280" y="530"/>
    </contour>
  </outline>
</glyph>
<glyph name="twosuperior" format="1">
  <advance width="266"/>
  <unicode hex="00B2"/>
  <outline>
    <contour>
      <point x="41" y="341" type="line"/>
      <point x="147" y="587" type="line" smooth="yes"/>
      <point x="155" y="605"/>
      <point x="161" y="625"/>
      <point x="161" y="646" type="curve" smooth="yes"/>
      <point x="161" y="663"/>
      <point x="154" y="684"/>
      <point x="133" y="684" type="curve" smooth="yes"/>
      <point x="115" y="684"/>
      <point x="106" y="665"/>
      <point x="106" y="647" type="curve" smooth="yes"/>
      <point x="106" y="622" type="line"/>
      <point x="49" y="622" type="line"/>
      <point x="49" y="646" type="line" smooth="yes"/>
      <point x="49" y="698"/>
      <point x="82" y="740"/>
      <point x="134" y="740" type="curve" smooth="yes"/>
      <point x="191" y="740"/>
      <point x="219" y="693"/>
      <point x="219" y="647" type="curve" smooth="yes"/>
      <point x="219" y="624"/>
      <point x="213" y="602"/>
      <point x="203" y="578" type="curve" smooth="yes"/>
      <point x="125" y="397" type="line"/>
      <point x="219" y="397" type="line"/>
      <point x="219" y="341" type="line"/>
    </contour>
  </outline>
</glyph>
<glyph name="acute" format="1">
  <advance width="373"/>
  <unicode hex="00B4"/>
  <outline>
    <contour>
      <point x="252" y="621" type="line"/>
      <point x="182" y="486" type="line"/>
      <point x="124" y="486" type="line"/>
      <point x="194" y="621" type="line"/>
    </contour>
  </outline>
</glyph>
<glyph name="paragraph" format="1">
  <advance width="493"/>
  <unicode hex="00B6"/>
  <outline>
    <contour>
      <point x="435" y="-179" type="line"/>
      <point x="380" y="-179" type="line"/>
      <point x="380" y="678" type="line"/>
      <point x="322" y="678" type="line"/>
      <point x="322" y="-179" type="line"/>
      <point x="267" y="-179" type="line"/>
      <point x="267" y="247" type="line"/>
      <point x="249" y="247" type="line" smooth="yes"/>
      <point x="115" y="247"/>
      <point x="25" y="362"/>
      <point x="25" y="487" type="curve" smooth="yes"/>
      <point x="25" y="635"/>
      <point x="124" y="730"/>
      <point x="254" y="730" type="curve" smooth="yes"/>
      <point x="435" y="730" type="line"/>
    </contour>
    <contour>
      <point x="267" y="299" type="line"/>
      <point x="267" y="678" type="line"/>
      <point x="250" y="678" type="line" smooth="yes"/>
      <point x="150" y="678"/>
      <point x="86" y="600"/>
      <point x="86" y="488" type="curve" smooth="yes"/>
      <point x="86" y="382"/>
      <point x="150" y="299"/>
      <point x="251" y="299" type="curve" smooth="yes"/>
    </contour>
  </outline>
</glyph>
<glyph name="periodcentered" format="1">
  <advance width="155"/>
  <unicode hex="00B7"/>
  <outline>
    <contour>
      <point x="111" y="243" type="line"/>
      <point x="45" y="243" type="line"/>
      <point x="45" y="331" type="line"/>
      <point x="111" y="331" type="line"/>
    </contour>
  </outline>
</glyph>
<glyph name="cedilla" format="1">
  <advance width="373"/>
  <unicode hex="00B8"/>
  <outline>
    <contour>
      <point x="270" y="-104" type="curve" smooth="yes"/>
      <point x="270" y="-156"/>
      <point x="225" y="-177"/>
      <point x="180" y="-177" type="curve" smooth="yes"/>
      <point x="149" y="-177"/>
      <point x="123" y="-165"/>
      <point x="100" y="-145" type="curve"/>
      <point x="121" y="-121" type="line"/>
      <point x="137" y="-136"/>
      <point x="155" y="-144"/>
      <point x="178" y="-144" type="curve" smooth="yes"/>
      <point x="199" y="-144"/>
      <point x="224" y="-134"/>
      <point x="224" y="-108" type="curve" smooth="yes"/>
      <point x="224" y="-87"/>
      <point x="208" y="-77"/>
      <point x="187" y="-77" type="curve" smooth="yes"/>
      <point x="173" y="-77"/>
      <point x="162" y="-79"/>
      <point x="150" y="-83" type="curve"/>
      <point x="136" y="-66" type="line"/>
      <point x="180" y="11" type="line"/>
      <point x="221" y="11" type="line"/>
      <point x="190" y="-49" type="line"/>
      <point x="192" y="-48"/>
      <point x="199" y="-47"/>
      <point x="206" y="-47" type="curve" smooth="yes"/>
      <point x="239" y="-47"/>
      <point x="270" y="-66"/>
    </contour>
  </outline>
</glyph>
<glyph name="ordmasculine" format="1">
  <advance width="315"/>
  <unicode hex="00BA"/>
  <outline>
    <contour>
      <point x="271" y="566" type="curve" smooth="yes"/>
      <point x="271" y="476"/>
      <point x="241" y="391"/>
      <point x="157" y="391" type="curve" smooth="yes"/>
      <point x="73" y="391"/>
      <point x="44" y="476"/>
      <point x="44" y="566" type="curve" smooth="yes"/>
      <point x="44" y="659"/>
      <point x="73" y="743"/>
      <point x="157" y="743" type="curve" smooth="yes"/>
      <point x="241" y="743"/>
      <point x="271" y="659"/>
    </contour>
    <contour>
      <point x="270" y="292" type="line"/>
      <point x="41" y="292" type="line"/>
      <point x="41" y="336" type="line"/>
      <point x="270" y="336" type="line"/>
    </contour>
    <contour>
      <point x="221" y="566" type="curve" smooth="yes"/>
      <point x="221" y="634"/>
      <point x="209" y="698"/>
      <point x="157" y="698" type="curve" smooth="yes"/>
      <point x="105" y="698"/>
      <point x="93" y="634"/>
      <point x="93" y="566" type="curve" smooth="yes"/>
      <point x="93" y="498"/>
      <point x="105" y="435"/>
      <point x="157" y="435" type="curve" smooth="yes"/>
      <point x="208" y="435"/>
      <point x="221" y="498"/>
    </contour>
  </outline>
</glyph>
<glyph name="guillemotright" format="1">
  <advance width="236"/>
  <unicode hex="00BB"/>
  <outline>
    <contour>
      <point x="220" y="173" type="line"/>
      <point x="131" y="59" type="line"/>
      <point x="131" y="129" type="line"/>
      <point x="184" y="201" type="line"/>
      <point x="129" y="275" type="line"/>
      <point x="129" y="344" type="line"/>
      <point x="220" y="230" type="line"/>
    </contour>
    <contour>
      <point x="113" y="173" type="line"/>
      <point x="24" y="59" type="line"/>
      <point x="24" y="129" type="line"/>
      <point x="77" y="201" type="line"/>
      <point x="22" y="275" type="line"/>
      <point x="22" y="344" type="line"/>
      <point x="113" y="230" type="line"/>
    </contour>
  </outline>
</glyph>
<glyph name="onequarter" format="1">
  <advance width="545"/>
  <unicode hex="00BC"/>
  <outline>
    <contour>
      <point x="129" y="335" type="line"/>
      <point x="78" y="335" type="line"/>
      <point x="78" y="648" type="line"/>
      <point x="73" y="636"/>
      <point x="58" y="624"/>
      <point x="42" y="619" type="curve"/>
      <point x="42" y="672" type="line"/>
      <point x="61" y="679"/>
      <point x="81" y="706"/>
      <point x="85" y="730" type="curve"/>
      <point x="129" y="730" type="line"/>
    </contour>
    <contour>
      <point x="427" y="730" type="line"/>
      <point x="113" y="0" type="line"/>
      <point x="63" y="0" type="line"/>
      <point x="378" y="730" type="line"/>
    </contour>
    <contour>
      <point x="504" y="92" type="line"/>
      <point x="474" y="92" type="line"/>
      <point x="474" y="0" type="line"/>
      <point x="423" y="0" type="line"/>
      <point x="423" y="92" type="line"/>
      <point x="293" y="92" type="line"/>
      <point x="293" y="143" type="line"/>
      <point x="408" y="394" type="line"/>
      <point x="474" y="394" type="line"/>
      <point x="474" y="149" type="line"/>
      <point x="504" y="149" type="line"/>
    </contour>
    <contour>
      <point x="423" y="149" type="line"/>
      <point x="423" y="320" type="line"/>
      <point x="346" y="149" type="line"/>
    </contour>
  </outline>
</glyph>
<glyph name="onehalf" format="1">
  <advance width="550"/>
  <unicode hex="00BD"/>
  <outline>
    <contour>
      <point x="129" y="335" type="line"/>
      <point x="78" y="335" type="line"/>
      <point x="78" y="648" type="line"/>
      <point x="73" y="636"/>
      <point x="58" y="624"/>
      <point x="42" y="619" type="curve"/>
      <point x="42" y="672" type="line"/>
      <point x="61" y="679"/>
      <point x="81" y="706"/>
      <point x="85" y="730" type="curve"/>
      <point x="129" y="730" type="line"/>
    </contour>
    <contour>
      <point x="427" y="730" type="line"/>
      <point x="113" y="0" type="line"/>
      <point x="63" y="0" type="line"/>
      <point x="378" y="730" type="line"/>
    </contour>
    <contour>
      <point x="324" y="0" type="line"/>
      <point x="430" y="246" type="line" smooth="yes"/>
      <point x="438" y="264"/>
      <point x="444" y="284"/>
      <point x="444" y="305" type="curve" smooth="yes"/>
      <point x="444" y="322"/>
      <point x="437" y="343"/>
      <point x="416" y="343" type="curve" smooth="yes"/>
      <point x="398" y="343"/>
      <point x="389" y="324"/>
      <point x="389" y="306" type="curve" smooth="yes"/>
      <point x="389" y="281" type="line"/>
      <point x="332" y="281" type="line"/>
      <point x="332" y="305" type="line" smooth="yes"/>
      <point x="332" y="357"/>
      <point x="365" y="399"/>
      <point x="417" y="399" type="curve" smooth="yes"/>
      <point x="474" y="399"/>
      <point x="502" y="352"/>
      <point x="502" y="306" type="curve" smooth="yes"/>
      <point x="502" y="283"/>
      <point x="496" y="261"/>
      <point x="486" y="237" type="curve" smooth="yes"/>
      <point x="408" y="56" type="line"/>
      <point x="502" y="56" type="line"/>
      <point x="502" y="0" type="line"/>
    </contour>
  </outline>
</glyph>
<glyph name="threequarters" format="1">
  <advance width="605"/>
  <unicode hex="00BE"/>
  <outline>
    <contour>
      <point x="126" y="328" type="curve" smooth="yes"/>
      <point x="94" y="328"/>
      <point x="59" y="343"/>
      <point x="34" y="377" type="curve"/>
      <point x="70" y="415" type="line"/>
      <point x="91" y="390"/>
      <point x="109" y="382"/>
      <point x="127" y="382" type="curve" smooth="yes"/>
      <point x="154" y="382"/>
      <point x="171" y="407"/>
      <point x="171" y="442" type="curve" smooth="yes"/>
      <point x="171" y="477"/>
      <point x="159" y="517"/>
      <point x="114" y="517" type="curve" smooth="yes"/>
      <point x="95" y="517" type="line"/>
      <point x="95" y="566" type="line"/>
      <point x="113" y="566" type="line" smooth="yes"/>
      <point x="149" y="566"/>
      <point x="162" y="599"/>
      <point x="162" y="633" type="curve" smooth="yes"/>
      <point x="162" y="660"/>
      <point x="148" y="684"/>
      <point x="129" y="684" type="curve" smooth="yes"/>
      <point x="110" y="684"/>
      <point x="97" y="668"/>
      <point x="86" y="634" type="curve"/>
      <point x="39" y="655" type="line"/>
      <point x="54" y="705"/>
      <point x="89" y="738"/>
      <point x="131" y="738" type="curve" smooth="yes"/>
      <point x="175" y="738"/>
      <point x="218" y="694"/>
      <point x="218" y="635" type="curve" smooth="yes"/>
      <point x="218" y="595"/>
      <point x="202" y="562"/>
      <point x="171" y="543" type="curve"/>
      <point x="204" y="531"/>
      <point x="227" y="493"/>
      <point x="227" y="444" type="curve" smooth="yes"/>
      <point x="227" y="378"/>
      <point x="184" y="328"/>
    </contour>
    <contour>
      <point x="495" y="730" type="line"/>
      <point x="181" y="0" type="line"/>
      <point x="131" y="0" type="line"/>
      <point x="446" y="730" type="line"/>
    </contour>
    <contour>
      <point x="564" y="92" type="line"/>
      <point x="534" y="92" type="line"/>
      <point x="534" y="0" type="line"/>
      <point x="483" y="0" type="line"/>
      <point x="483" y="92" type="line"/>
      <point x="353" y="92" type="line"/>
      <point x="353" y="143" type="line"/>
      <point x="468" y="394" type="line"/>
      <point x="534" y="394" type="line"/>
      <point x="534" y="149" type="line"/>
      <point x="564" y="149" type="line"/>
    </contour>
    <contour>
      <point x="483" y="149" type="line"/>
      <point x="483" y="320" type="line"/>
      <point x="406" y="149" type="line"/>
    </contour>
  </outline>
</glyph>
<glyph name="questiondown" format="1">
  <advance width="298"/>
  <unicode hex="00BF"/>
  <outline>
    <contour>
      <point x="191" y="649" type="line"/>
      <point x="132" y="649" type="line"/>
      <point x="132" y="730" type="line"/>
      <point x="191" y="730" type="line"/>
    </contour>
    <contour>
      <point x="279" y="88" type="line"/>
      <point x="263" y="31"/>
      <point x="220" y="-12"/>
      <point x="156" y="-12" type="curve" smooth="yes"/>
      <point x="78" y="-12"/>
      <point x="30" y="50"/>
      <point x="30" y="130" type="curve" smooth="yes"/>
      <point x="30" y="195"/>
      <point x="57" y="263"/>
      <point x="91" y="334" type="curve" smooth="yes"/>
      <point x="116" y="386"/>
      <point x="136" y="457"/>
      <point x="136" y="525" type="curve" smooth="yes"/>
      <point x="136" y="595" type="line"/>
      <point x="187" y="595" type="line"/>
      <point x="187" y="534" type="line" smooth="yes"/>
      <point x="187" y="450"/>
      <point x="169" y="374"/>
      <point x="144" y="320" type="curve" smooth="yes"/>
      <point x="112" y="250"/>
      <point x="92" y="192"/>
      <point x="92" y="137" type="curve" smooth="yes"/>
      <point x="92" y="83"/>
      <point x="118" y="46"/>
      <point x="156" y="46" type="curve" smooth="yes"/>
      <point x="198" y="46"/>
      <point x="220" y="72"/>
      <point x="234" y="116" type="curve"/>
    </contour>
  </outline>
</glyph>
<glyph name="Adieresis" format="1">
  <advance width="465"/>
  <unicode hex="00C4"/>
  <outline>
    <contour>
      <point x="367" y="648" type="line"/>
      <point x="312" y="648" type="line"/>
      <point x="312" y="743" type="line"/>
      <point x="367" y="743" type="line"/>
    </contour>
    <contour>
      <point x="155" y="648" type="line"/>
      <point x="100" y="648" type="line"/>
      <point x="100" y="743" type="line"/>
      <point x="155" y="743" type="line"/>
    </contour>
    <contour>
      <point x="452" y="0" type="line"/>
      <point x="391" y="0" type="line"/>
      <point x="343" y="170" type="line"/>
      <point x="123" y="170" type="line"/>
      <point x="75" y="0" type="line"/>
      <point x="15" y="0" type="line"/>
      <point x="224" y="743" type="line"/>
      <point x="243" y="743" type="line"/>
    </contour>
    <contour>
      <point x="327" y="222" type="line"/>
      <point x="233" y="577" type="line"/>
      <point x="139" y="222" type="line"/>
    </contour>
  </outline>
</glyph>
<glyph name="Aring" format="1">
  <advance width="465"/>
  <unicode hex="00C5"/>
  <outline>
    <contour>
      <point x="214" y="706" type="line"/>
      <point x="175" y="716"/>
      <point x="149" y="755"/>
      <point x="149" y="802" type="curve" smooth="yes"/>
      <point x="149" y="857"/>
      <point x="184" y="900"/>
      <point x="233" y="900" type="curve" smooth="yes"/>
      <point x="282" y="900"/>
      <point x="318" y="857"/>
      <point x="318" y="802" type="curve" smooth="yes"/>
      <point x="318" y="755"/>
      <point x="292" y="717"/>
      <point x="253" y="707" type="curve"/>
      <point x="452" y="0" type="line"/>
      <point x="391" y="0" type="line"/>
      <point x="343" y="170" type="line"/>
      <point x="123" y="170" type="line"/>
      <point x="75" y="0" type="line"/>
      <point x="15" y="0" type="line"/>
    </contour>
    <contour>
      <point x="277" y="802" type="curve" smooth="yes"/>
      <point x="277" y="834"/>
      <point x="259" y="859"/>
      <point x="233" y="859" type="curve" smooth="yes"/>
      <point x="207" y="859"/>
      <point x="189" y="834"/>
      <point x="189" y="802" type="curve" smooth="yes"/>
      <point x="189" y="771"/>
      <point x="207" y="744"/>
      <point x="233" y="744" type="curve" smooth="yes"/>
      <point x="259" y="744"/>
      <point x="277" y="771"/>
    </contour>
    <contour>
      <point x="327" y="222" type="line"/>
      <point x="233" y="577" type="line"/>
      <point x="139" y="222" type="line"/>
    </contour>
  </outline>
</glyph>
<glyph name="AE" format="1">
  <advance width="647"/>
  <unicode hex="00C6"/>
  <outline>
    <contour>
      <point x="612" y="0" type="line"/>
      <point x="339" y="0" type="line"/>
      <point x="339" y="168" type="line"/>
      <point x="143" y="168" type="line"/>
      <point x="77" y="0" type="line"/>
      <point x="13" y="0" type="line"/>
      <point x="305" y="730" type="line"/>
      <point x="603" y="730" type="line"/>
      <point x="603" y="672" type="line"/>
      <point x="401" y="672" type="line"/>
      <point x="401" y="393" type="line"/>
      <point x="585" y="393" type="line"/>
      <point x="585" y="334" type="line"/>
      <point x="401" y="334" type="line"/>
      <point x="401" y="58" type="line"/>
      <point x="612" y="58" type="line"/>
    </contour>
    <contour>
      <point x="339" y="223" type="line"/>
      <point x="339" y="666" type="line"/>
      <point x="166" y="223" type="line"/>
    </contour>
  </outline>
</glyph>
<glyph name="Ccedilla" format="1">
  <advance width="381"/>
  <unicode hex="00C7"/>
  <outline>
    <contour>
      <point x="219" y="-10" type="line"/>
      <point x="90" y="13"/>
      <point x="34" y="184"/>
      <point x="34" y="368" type="curve" smooth="yes"/>
      <point x="34" y="562"/>
      <point x="100" y="742"/>
      <point x="243" y="742" type="curve" smooth="yes"/>
      <point x="293" y="742"/>
      <point x="330" y="717"/>
      <point x="356" y="691" type="curve"/>
      <point x="328" y="644" type="line"/>
      <point x="307" y="667"/>
      <point x="282" y="684"/>
      <point x="243" y="684" type="curve" smooth="yes"/>
      <point x="141" y="684"/>
      <point x="96" y="528"/>
      <point x="96" y="368" type="curve" smooth="yes"/>
      <point x="96" y="216"/>
      <point x="133" y="46"/>
      <point x="249" y="46" type="curve" smooth="yes"/>
      <point x="287" y="46"/>
      <point x="310" y="63"/>
      <point x="332" y="86" type="curve"/>
      <point x="360" y="39" type="line"/>
      <point x="335" y="14"/>
      <point x="301" y="-8"/>
      <point x="259" y="-11" type="curve"/>
      <point x="237" y="-55" type="line"/>
      <point x="239" y="-54"/>
      <point x="246" y="-53"/>
      <point x="253" y="-53" type="curve" smooth="yes"/>
      <point x="286" y="-53"/>
      <point x="317" y="-72"/>
      <point x="317" y="-110" type="curve" smooth="yes"/>
      <point x="317" y="-162"/>
      <point x="272" y="-183"/>
      <point x="227" y="-183" type="curve" smooth="yes"/>
      <point x="196" y="-183"/>
      <point x="170" y="-171"/>
      <point x="147" y="-151" type="curve"/>
      <point x="168" y="-127" type="line"/>
      <point x="184" y="-142"/>
      <point x="202" y="-150"/>
      <point x="225" y="-150" type="curve" smooth="yes"/>
      <point x="246" y="-150"/>
      <point x="271" y="-140"/>
      <point x="271" y="-114" type="curve" smooth="yes"/>
      <point x="271" y="-93"/>
      <point x="255" y="-83"/>
      <point x="234" y="-83" type="curve" smooth="yes"/>
      <point x="220" y="-83"/>
      <point x="209" y="-85"/>
      <point x="197" y="-89" type="curve"/>
      <point x="183" y="-72" type="line"/>
    </contour>
  </outline>
</glyph>
<glyph name="Eth" format="1">
  <advance width="457"/>
  <unicode hex="00D0"/>
  <outline>
    <contour>
      <point x="423" y="372" type="curve" smooth="yes"/>
      <point x="423" y="143"/>
      <point x="328" y="0"/>
      <point x="153" y="0" type="curve" smooth="yes"/>
      <point x="68" y="0" type="line"/>
      <point x="68" y="337" type="line"/>
      <point x="23" y="337" type="line"/>
      <point x="23" y="396" type="line"/>
      <point x="68" y="396" type="line"/>
      <point x="68" y="730" type="line"/>
      <point x="156" y="730" type="line" smooth="yes"/>
      <point x="345" y="730"/>
      <point x="423" y="567"/>
    </contour>
    <contour>
      <point x="359" y="372" type="curve" smooth="yes"/>
      <point x="359" y="539"/>
      <point x="298" y="672"/>
      <point x="160" y="672" type="curve" smooth="yes"/>
      <point x="130" y="672" type="line"/>
      <point x="130" y="396" type="line"/>
      <point x="213" y="396" type="line"/>
      <point x="213" y="337" type="line"/>
      <point x="130" y="337" type="line"/>
      <point x="130" y="58" type="line"/>
      <point x="162" y="58" type="line" smooth="yes"/>
      <point x="298" y="58"/>
      <point x="359" y="188"/>
    </contour>
  </outline>
</glyph>
<glyph name="Odieresis" format="1">
  <advance width="491"/>
  <unicode hex="00D6"/>
  <outline>
    <contour>
      <point x="399" y="647" type="curve"/>
      <point x="399" y="730" type="line"/>
      <point x="454" y="730" type="line"/>
      <point x="454" y="635" type="line"/>
      <point x="406" y="635" type="line"/>
      <point x="443" y="564"/>
      <point x="458" y="467"/>
      <point x="458" y="366" type="curve" smooth="yes"/>
      <point x="458" y="175"/>
      <point x="398" y="-12"/>
      <point x="246" y="-12" type="curve" smooth="yes"/>
      <point x="96" y="-12"/>
      <point x="34" y="175"/>
      <point x="34" y="366" type="curve" smooth="yes"/>
      <point x="34" y="467"/>
      <point x="51" y="564"/>
      <point x="88" y="635" type="curve"/>
      <point x="46" y="635" type="line"/>
      <point x="46" y="730" type="line"/>
      <point x="101" y="730" type="line"/>
      <point x="101" y="657" type="line"/>
      <point x="135" y="709"/>
      <point x="183" y="742"/>
      <point x="246" y="742" type="curve" smooth="yes"/>
      <point x="315" y="742"/>
      <point x="365" y="705"/>
    </contour>
    <contour>
      <point x="396" y="366" type="curve" smooth="yes"/>
      <point x="396" y="528"/>
      <point x="360" y="684"/>
      <point x="246" y="684" type="curve" smooth="yes"/>
      <point x="133" y="684"/>
      <point x="96" y="528"/>
      <point x="96" y="366" type="curve" smooth="yes"/>
      <point x="96" y="208"/>
      <point x="133" y="46"/>
      <point x="246" y="46" type="curve" smooth="yes"/>
      <point x="360" y="46"/>
      <point x="396" y="208"/>
    </contour>
  </outline>
</glyph>
<glyph name="multiply" format="1">
  <advance width="298"/>
  <unicode hex="00D7"/>
  <outline>
    <contour>
      <point x="222" y="154" type="line"/>
      <point x="149" y="279" type="line"/>
      <point x="74" y="154" type="line"/>
      <point x="30" y="181" type="line"/>
      <point x="119" y="330" type="line"/>
      <point x="33" y="482" type="line"/>
      <point x="77" y="510" type="line"/>
      <point x="149" y="383" type="line"/>
      <point x="224" y="510" type="line"/>
      <point x="268" y="482" type="line"/>
      <point x="179" y="331" type="line"/>
      <point x="266" y="181" type="line"/>
    </contour>
  </outline>
</glyph>
<glyph name="Oslash" format="1">
  <advance width="491"/>
  <unicode hex="00D8"/>
  <outline>
    <contour>
      <point x="468" y="729" type="line"/>
      <point x="413" y="626" type="line"/>
      <point x="446" y="556"/>
      <point x="458" y="462"/>
      <point x="458" y="366" type="curve" smooth="yes"/>
      <point x="458" y="178"/>
      <point x="404" y="-12"/>
      <point x="246" y="-12" type="curve" smooth="yes"/>
      <point x="186" y="-12"/>
      <point x="141" y="16"/>
      <point x="108" y="61" type="curve"/>
      <point x="66" y="-18" type="line"/>
      <point x="33" y="2" type="line"/>
      <point x="86" y="99" type="line"/>
      <point x="50" y="170"/>
      <point x="35" y="267"/>
      <point x="35" y="366" type="curve" smooth="yes"/>
      <point x="35" y="557"/>
      <point x="89" y="742"/>
      <point x="246" y="742" type="curve" smooth="yes"/>
      <point x="311" y="742"/>
      <point x="358" y="713"/>
      <point x="390" y="664" type="curve"/>
      <point x="436" y="748" type="line"/>
    </contour>
    <contour>
      <point x="354" y="604" type="line"/>
      <point x="331" y="651"/>
      <point x="297" y="681"/>
      <point x="246" y="681" type="curve" smooth="yes"/>
      <point x="132" y="681"/>
      <point x="100" y="526"/>
      <point x="100" y="366" type="curve" smooth="yes"/>
      <point x="100" y="293"/>
      <point x="108" y="219"/>
      <point x="126" y="167" type="curve"/>
    </contour>
    <contour>
      <point x="393" y="366" type="curve" smooth="yes"/>
      <point x="393" y="436"/>
      <point x="386" y="502"/>
      <point x="369" y="555" type="curve"/>
      <point x="143" y="120" type="line"/>
      <point x="166" y="76"/>
      <point x="199" y="49"/>
      <point x="246" y="49" type="curve" smooth="yes"/>
      <point x="362" y="49"/>
      <point x="393" y="210"/>
    </contour>
  </outline>
</glyph>
<glyph name="Thorn" format="1">
  <advance width="448"/>
  <unicode hex="00DE"/>
  <outline>
    <contour>
      <point x="419" y="381" type="curve" smooth="yes"/>
      <point x="419" y="262"/>
      <point x="332" y="166"/>
      <point x="193" y="166" type="curve" smooth="yes"/>
      <point x="130" y="166" type="line"/>
      <point x="130" y="0" type="line"/>
      <point x="67" y="0" type="line"/>
      <point x="67" y="730" type="line"/>
      <point x="130" y="730" type="line"/>
      <point x="130" y="594" type="line"/>
      <point x="193" y="594" type="line" smooth="yes"/>
      <point x="321" y="594"/>
      <point x="419" y="523"/>
    </contour>
    <contour>
      <point x="353" y="381" type="curve" smooth="yes"/>
      <point x="353" y="480"/>
      <point x="294" y="534"/>
      <point x="195" y="534" type="curve" smooth="yes"/>
      <point x="130" y="534" type="line"/>
      <point x="130" y="226" type="line"/>
      <point x="194" y="226" type="line" smooth="yes"/>
      <point x="292" y="226"/>
      <point x="353" y="289"/>
    </contour>
  </outline>
</glyph>
<glyph name="germandbls" format="1">
  <advance width="328"/>
  <unicode hex="00DF"/>
  <outline>
    <contour>
      <point x="304" y="194" type="curve" smooth="yes"/>
      <point x="304" y="77"/>
      <point x="256" y="-4"/>
      <point x="169" y="-5" type="curve" smooth="yes"/>
      <point x="160" y="-5"/>
      <point x="152" y="-1"/>
      <point x="147" y="5" type="curve"/>
      <point x="151" y="58" type="line"/>
      <point x="155" y="54"/>
      <point x="161" y="50"/>
      <point x="169" y="50" type="curve" smooth="yes"/>
      <point x="218" y="51"/>
      <point x="244" y="108"/>
      <point x="244" y="194" type="curve" smooth="yes"/>
      <point x="244" y="286"/>
      <point x="214" y="382"/>
      <point x="148" y="398" type="curve"/>
      <point x="145" y="398" type="line"/>
      <point x="145" y="438" type="line"/>
      <point x="146" y="438"/>
      <point x="149" y="438"/>
      <point x="149" y="438" type="curve"/>
      <point x="193" y="447"/>
      <point x="223" y="499"/>
      <point x="223" y="571" type="curve" smooth="yes"/>
      <point x="223" y="647"/>
      <point x="199" y="687"/>
      <point x="161" y="687" type="curve" smooth="yes"/>
      <point x="119" y="687"/>
      <point x="104" y="638"/>
      <point x="104" y="572" type="curve" smooth="yes"/>
      <point x="104" y="0" type="line"/>
      <point x="44" y="0" type="line"/>
      <point x="44" y="567" type="line" smooth="yes"/>
      <point x="44" y="675"/>
      <point x="79" y="742"/>
      <point x="162" y="742" type="curve" smooth="yes"/>
      <point x="236" y="742"/>
      <point x="283" y="680"/>
      <point x="283" y="573" type="curve" smooth="yes"/>
      <point x="283" y="496"/>
      <point x="251" y="442"/>
      <point x="211" y="417" type="curve"/>
      <point x="256" y="388"/>
      <point x="304" y="326"/>
    </contour>
  </outline>
</glyph>
<glyph name="ae" format="1">
  <advance width="521"/>
  <unicode hex="00E6"/>
  <outline>
    <contour>
      <point x="490" y="57" type="line"/>
      <point x="461" y="14"/>
      <point x="422" y="-12"/>
      <point x="370" y="-12" type="curve" smooth="yes"/>
      <point x="319" y="-12"/>
      <point x="283" y="14"/>
      <point x="259" y="56" type="curve"/>
      <point x="233" y="18"/>
      <point x="198" y="-10"/>
      <point x="141" y="-10" type="curve" smooth="yes"/>
      <point x="75" y="-10"/>
      <point x="27" y="44"/>
      <point x="27" y="116" type="curve" smooth="yes"/>
      <point x="27" y="198"/>
      <point x="98" y="254"/>
      <point x="194" y="254" type="curve" smooth="yes"/>
      <point x="226" y="254" type="line"/>
      <point x="226" y="301" type="line" smooth="yes"/>
      <point x="226" y="343"/>
      <point x="209" y="366"/>
      <point x="163" y="366" type="curve" smooth="yes"/>
      <point x="128" y="366"/>
      <point x="95" y="353"/>
      <point x="66" y="334" type="curve"/>
      <point x="43" y="383" type="line"/>
      <point x="82" y="407"/>
      <point x="117" y="421"/>
      <point x="163" y="421" type="curve" smooth="yes"/>
      <point x="213" y="421"/>
      <point x="254" y="401"/>
      <point x="266" y="356" type="curve"/>
      <point x="282" y="395"/>
      <point x="319" y="420"/>
      <point x="362" y="420" type="curve" smooth="yes"/>
      <point x="459" y="420"/>
      <point x="496" y="315"/>
      <point x="496" y="234" type="curve" smooth="yes"/>
      <point x="496" y="197" type="line"/>
      <point x="285" y="197" type="line"/>
      <point x="285" y="118"/>
      <point x="305" y="43"/>
      <point x="370" y="43" type="curve" smooth="yes"/>
      <point x="406" y="43"/>
      <point x="434" y="66"/>
      <point x="451" y="92" type="curve"/>
    </contour>
    <contour>
      <point x="436" y="244" type="line"/>
      <point x="436" y="254" type="line" smooth="yes"/>
      <point x="436" y="304"/>
      <point x="414" y="366"/>
      <point x="362" y="366" type="curve" smooth="yes"/>
      <point x="310" y="366"/>
      <point x="286" y="311"/>
      <point x="286" y="244" type="curve"/>
    </contour>
    <contour>
      <point x="233" y="108" type="curve"/>
      <point x="229" y="122"/>
      <point x="227" y="152"/>
      <point x="227" y="180" type="curve" smooth="yes"/>
      <point x="227" y="188"/>
      <point x="227" y="200"/>
      <point x="227" y="204" type="curve"/>
      <point x="226" y="204" type="line"/>
      <point x="196" y="204" type="line" smooth="yes"/>
      <point x="130" y="204"/>
      <point x="88" y="171"/>
      <point x="88" y="119" type="curve" smooth="yes"/>
      <point x="88" y="74"/>
      <point x="110" y="45"/>
      <point x="149" y="45" type="curve" smooth="yes"/>
      <point x="189" y="45"/>
      <point x="218" y="68"/>
    </contour>
  </outline>
</glyph>
<glyph name="ccedilla" format="1">
  <advance width="294"/>
  <unicode hex="00E7"/>
  <outline>
    <contour>
      <point x="140" y="-10" type="line"/>
      <point x="63" y="6"/>
      <point x="26" y="96"/>
      <point x="26" y="203" type="curve" smooth="yes"/>
      <point x="26" y="322"/>
      <point x="70" y="420"/>
      <point x="164" y="420" type="curve" smooth="yes"/>
      <point x="223" y="420"/>
      <point x="250" y="386"/>
      <point x="269" y="350" type="curve"/>
      <point x="228" y="318" type="line"/>
      <point x="212" y="349"/>
      <point x="193" y="368"/>
      <point x="164" y="368" type="curve" smooth="yes"/>
      <point x="103" y="368"/>
      <point x="84" y="282"/>
      <point x="84" y="203" type="curve" smooth="yes"/>
      <point x="84" y="126"/>
      <point x="104" y="40"/>
      <point x="164" y="40" type="curve" smooth="yes"/>
      <point x="196" y="40"/>
      <point x="220" y="64"/>
      <point x="237" y="96" type="curve"/>
      <point x="279" y="66" type="line"/>
      <point x="256" y="24"/>
      <point x="228" y="-5"/>
      <point x="182" y="-11" type="curve"/>
      <point x="162" y="-49" type="line"/>
      <point x="164" y="-48"/>
      <point x="171" y="-47"/>
      <point x="178" y="-47" type="curve" smooth="yes"/>
      <point x="211" y="-47"/>
      <point x="242" y="-66"/>
      <point x="242" y="-104" type="curve" smooth="yes"/>
      <point x="242" y="-156"/>
      <point x="197" y="-177"/>
      <point x="152" y="-177" type="curve" smooth="yes"/>
      <point x="121" y="-177"/>
      <point x="95" y="-165"/>
      <point x="72" y="-145" type="curve"/>
      <point x="93" y="-121" type="line"/>
      <point x="109" y="-136"/>
      <point x="127" y="-144"/>
      <point x="150" y="-144" type="curve" smooth="yes"/>
      <point x="171" y="-144"/>
      <point x="196" y="-134"/>
      <point x="196" y="-108" type="curve" smooth="yes"/>
      <point x="196" y="-87"/>
      <point x="180" y="-77"/>
      <point x="159" y="-77" type="curve" smooth="yes"/>
      <point x="145" y="-77"/>
      <point x="134" y="-79"/>
      <point x="122" y="-83" type="curve"/>
      <point x="108" y="-66" type="line"/>
    </contour>
  </outline>
</glyph>
<glyph name="eth" format="1">
  <advance width="347"/>
  <unicode hex="00F0"/>
  <outline>
    <contour>
      <point x="196" y="573" type="curve"/>
      <point x="96" y="532" type="line"/>
      <point x="76" y="574" type="line"/>
      <point x="176" y="615" type="line"/>
      <point x="156" y="655"/>
      <point x="135" y="692"/>
      <point x="115" y="716" type="curve"/>
      <point x="148" y="742" type="line"/>
      <point x="171" y="718"/>
      <point x="198" y="682"/>
      <point x="223" y="634" type="curve"/>
      <point x="291" y="662" type="line"/>
      <point x="310" y="620" type="line"/>
      <point x="243" y="592" type="line"/>
      <point x="285" y="499"/>
      <point x="319" y="372"/>
      <point x="319" y="218" type="curve" smooth="yes"/>
      <point x="319" y="98"/>
      <point x="276" y="-12"/>
      <point x="173" y="-12" type="curve" smooth="yes"/>
      <point x="74" y="-12"/>
      <point x="28" y="95"/>
      <point x="28" y="215" type="curve" smooth="yes"/>
      <point x="28" y="328"/>
      <point x="73" y="435"/>
      <point x="168" y="435" type="curve" smooth="yes"/>
      <point x="207" y="435"/>
      <point x="229" y="416"/>
      <point x="252" y="389" type="curve"/>
      <point x="250" y="433"/>
      <point x="227" y="505"/>
    </contour>
    <contour>
      <point x="258" y="215" type="curve" smooth="yes"/>
      <point x="258" y="295"/>
      <point x="238" y="380"/>
      <point x="174" y="380" type="curve" smooth="yes"/>
      <point x="107" y="380"/>
      <point x="89" y="296"/>
      <point x="89" y="212" type="curve" smooth="yes"/>
      <point x="89" y="120"/>
      <point x="114" y="43"/>
      <point x="173" y="43" type="curve" smooth="yes"/>
      <point x="232" y="43"/>
      <point x="258" y="116"/>
    </contour>
  </outline>
</glyph>
<glyph name="oslash" format="1">
  <advance width="332"/>
  <unicode hex="00F8"/>
  <outline>
    <contour>
      <point x="310" y="406" type="line"/>
      <point x="310" y="406"/>
      <point x="280" y="359"/>
      <point x="275" y="349" type="curve"/>
      <point x="295" y="310"/>
      <point x="304" y="258"/>
      <point x="304" y="204" type="curve" smooth="yes"/>
      <point x="304" y="95"/>
      <point x="267" y="-12"/>
      <point x="165" y="-12" type="curve" smooth="yes"/>
      <point x="126" y="-12"/>
      <point x="97" y="3"/>
      <point x="76" y="29" type="curve"/>
      <point x="71" y="22"/>
      <point x="50" y="-13"/>
      <point x="50" y="-13" type="curve"/>
      <point x="24" y="3" type="line"/>
      <point x="56" y="56" type="line"/>
      <point x="35" y="96"/>
      <point x="26" y="150"/>
      <point x="26" y="204" type="curve" smooth="yes"/>
      <point x="26" y="316"/>
      <point x="63" y="420"/>
      <point x="165" y="420" type="curve" smooth="yes"/>
      <point x="205" y="420"/>
      <point x="234" y="404"/>
      <point x="256" y="377" type="curve"/>
      <point x="284" y="422" type="line"/>
    </contour>
    <contour>
      <point x="223" y="325" type="line"/>
      <point x="211" y="350"/>
      <point x="193" y="366"/>
      <point x="165" y="366" type="curve" smooth="yes"/>
      <point x="102" y="366"/>
      <point x="87" y="287"/>
      <point x="87" y="204" type="curve" smooth="yes"/>
      <point x="87" y="173"/>
      <point x="89" y="143"/>
      <point x="96" y="118" type="curve"/>
    </contour>
    <contour>
      <point x="243" y="204" type="curve" smooth="yes"/>
      <point x="243" y="233"/>
      <point x="241" y="262"/>
      <point x="235" y="286" type="curve"/>
      <point x="235" y="287"/>
      <point x="108" y="79"/>
      <point x="108" y="79" type="curve"/>
      <point x="120" y="57"/>
      <point x="137" y="43"/>
      <point x="165" y="43" type="curve" smooth="yes"/>
      <point x="228" y="43"/>
      <point x="243" y="121"/>
    </contour>
  </outline>
</glyph>
<glyph name="thorn" format="1">
  <advance width="410"/>
  <unicode hex="00FE"/>
  <outline>
    <contour>
      <point x="381" y="201" type="curve" smooth="yes"/>
      <point x="381" y="97"/>
      <point x="331" y="-12"/>
      <point x="222" y="-12" type="curve" smooth="yes"/>
      <point x="172" y="-12"/>
      <point x="131" y="24"/>
      <point x="113" y="63" type="curve"/>
      <point x="113" y="-179" type="line"/>
      <point x="52" y="-179" type="line"/>
      <point x="52" y="730" type="line"/>
      <point x="113" y="730" type="line"/>
      <point x="113" y="346" type="line"/>
      <point x="127" y="382"/>
      <point x="169" y="422"/>
      <point x="223" y="422" type="curve" smooth="yes"/>
      <point x="329" y="422"/>
      <point x="381" y="315"/>
    </contour>
    <contour>
      <point x="319" y="200" type="curve" smooth="yes"/>
      <point x="319" y="276"/>
      <point x="290" y="369"/>
      <point x="213" y="369" type="curve" smooth="yes"/>
      <point x="149" y="369"/>
      <point x="113" y="279"/>
      <point x="113" y="199" type="curve" smooth="yes"/>
      <point x="113" y="127"/>
      <point x="149" y="42"/>
      <point x="214" y="42" type="curve" smooth="yes"/>
      <point x="287" y="42"/>
      <point x="319" y="126"/>
    </contour>
  </outline>
</glyph>
<glyph name="dotlessi" format="1">
  <advance width="155"/>
  <unicode hex="0131"/>
  <outline>
    <contour>
      <point x="106" y="0" type="line"/>
      <point x="49" y="0" type="line"/>
      <point x="49" y="408" type="line"/>
      <point x="106" y="408" type="line"/>
    </contour>
  </outline>
</glyph>
<glyph name="Lslash" format="1">
  <advance width="345"/>
  <unicode hex="0141"/>
  <outline>
    <contour>
      <point x="243" y="386" type="line"/>
      <point x="130" y="329" type="line"/>
      <point x="130" y="60" type="line"/>
      <point x="327" y="60" type="line"/>
      <point x="327" y="0" type="line"/>
      <point x="68" y="0" type="line"/>
      <point x="68" y="302" type="line"/>
      <point x="29" y="281" type="line"/>
      <point x="5" y="331" type="line"/>
      <point x="68" y="363" type="line"/>
      <point x="68" y="730" type="line"/>
      <point x="130" y="730" type="line"/>
      <point x="130" y="390" type="line"/>
      <point x="220" y="436" type="line"/>
    </contour>
  </outline>
</glyph>
<glyph name="lslash" format="1">
  <advance width="188"/>
  <unicode hex="0142"/>
  <outline>
    <contour>
      <point x="184" y="350" type="line"/>
      <point x="125" y="323" type="line"/>
      <point x="125" y="0" type="line"/>
      <point x="64" y="0" type="line"/>
      <point x="64" y="298" type="line"/>
      <point x="32" y="283" type="line"/>
      <point x="8" y="333" type="line"/>
      <point x="64" y="358" type="line"/>
      <point x="64" y="730" type="line"/>
      <point x="125" y="730" type="line"/>
      <point x="125" y="384" type="line"/>
      <point x="161" y="400" type="line"/>
    </contour>
  </outline>
</glyph>
<glyph name="OE" format="1">
  <advance width="702"/>
  <unicode hex="0152"/>
  <outline>
    <contour>
      <point x="667" y="0" type="line"/>
      <point x="394" y="0" type="line"/>
      <point x="394" y="109" type="line"/>
      <point x="372" y="34"/>
      <point x="315" y="-12"/>
      <point x="246" y="-12" type="curve" smooth="yes"/>
      <point x="89" y="-12"/>
      <point x="35" y="178"/>
      <point x="35" y="366" type="curve" smooth="yes"/>
      <point x="35" y="557"/>
      <point x="89" y="742"/>
      <point x="246" y="742" type="curve" smooth="yes"/>
      <point x="316" y="742"/>
      <point x="371" y="695"/>
      <point x="394" y="618" type="curve"/>
      <point x="394" y="730" type="line"/>
      <point x="658" y="730" type="line"/>
      <point x="658" y="672" type="line"/>
      <point x="456" y="672" type="line"/>
      <point x="456" y="393" type="line"/>
      <point x="640" y="393" type="line"/>
      <point x="640" y="334" type="line"/>
      <point x="456" y="334" type="line"/>
      <point x="456" y="58" type="line"/>
      <point x="667" y="58" type="line"/>
    </contour>
    <contour>
      <point x="393" y="366" type="curve" smooth="yes"/>
      <point x="393" y="526"/>
      <point x="361" y="681"/>
      <point x="246" y="681" type="curve" smooth="yes"/>
      <point x="132" y="681"/>
      <point x="100" y="526"/>
      <point x="100" y="366" type="curve" smooth="yes"/>
      <point x="100" y="210"/>
      <point x="132" y="49"/>
      <point x="246" y="49" type="curve" smooth="yes"/>
      <point x="362" y="49"/>
      <point x="393" y="210"/>
    </contour>
  </outline>
</glyph>
<glyph name="oe" format="1">
  <advance width="537"/>
  <unicode hex="0153"/>
  <outline>
    <contour>
      <point x="505" y="57" type="line"/>
      <point x="477" y="14"/>
      <point x="438" y="-12"/>
      <point x="387" y="-12" type="curve" smooth="yes"/>
      <point x="331" y="-12"/>
      <point x="290" y="23"/>
      <point x="274" y="73" type="curve"/>
      <point x="257" y="23"/>
      <point x="219" y="-12"/>
      <point x="165" y="-12" type="curve" smooth="yes"/>
      <point x="63" y="-12"/>
      <point x="26" y="95"/>
      <point x="26" y="204" type="curve" smooth="yes"/>
      <point x="26" y="316"/>
      <point x="63" y="420"/>
      <point x="165" y="420" type="curve" smooth="yes"/>
      <point x="217" y="420"/>
      <point x="258" y="385"/>
      <point x="273" y="337" type="curve"/>
      <point x="287" y="385"/>
      <point x="326" y="420"/>
      <point x="378" y="420" type="curve" smooth="yes"/>
      <point x="475" y="420"/>
      <point x="512" y="315"/>
      <point x="512" y="234" type="curve" smooth="yes"/>
      <point x="512" y="194" type="line"/>
      <point x="302" y="194" type="line"/>
      <point x="302" y="193"/>
      <point x="302" y="187"/>
      <point x="302" y="185" type="curve" smooth="yes"/>
      <point x="304" y="110"/>
      <point x="324" y="43"/>
      <point x="387" y="43" type="curve" smooth="yes"/>
      <point x="423" y="43"/>
      <point x="450" y="66"/>
      <point x="468" y="92" type="curve"/>
    </contour>
    <contour>
      <point x="452" y="241" type="line"/>
      <point x="452" y="254" type="line" smooth="yes"/>
      <point x="452" y="304"/>
      <point x="431" y="366"/>
      <point x="378" y="366" type="curve" smooth="yes"/>
      <point x="326" y="366"/>
      <point x="303" y="308"/>
      <point x="302" y="241" type="curve"/>
    </contour>
    <contour>
      <point x="245" y="204" type="curve" smooth="yes"/>
      <point x="245" y="288"/>
      <point x="225" y="367"/>
      <point x="166" y="367" type="curve" smooth="yes"/>
      <point x="106" y="367"/>
      <point x="86" y="288"/>
      <point x="86" y="204" type="curve" smooth="yes"/>
      <point x="86" y="120"/>
      <point x="106" y="42"/>
      <point x="166" y="42" type="curve" smooth="yes"/>
      <point x="225" y="42"/>
      <point x="245" y="120"/>
    </contour>
  </outline>
</glyph>
<glyph name="florin" format="1">
  <advance width="235"/>
  <unicode hex="0192"/>
  <outline>
    <contour>
      <point x="139" y="409" type="line"/>
      <point x="194" y="409" type="line"/>
      <point x="189" y="355" type="line"/>
      <point x="135" y="355" type="line"/>
      <point x="99" y="-53" type="line" smooth="yes"/>
      <point x="90" y="-151"/>
      <point x="44" y="-179"/>
      <point x="-21" y="-179" type="curve" smooth="yes"/>
      <point x="-22" y="-179"/>
      <point x="-26" y="-179"/>
      <point x="-26" y="-179" type="curve"/>
      <point x="-22" y="-120" type="line"/>
      <point x="-21" y="-120"/>
      <point x="-17" y="-120"/>
      <point x="-16" y="-120" type="curve" smooth="yes"/>
      <point x="23" y="-119"/>
      <point x="36" y="-96"/>
      <point x="40" y="-49" type="curve" smooth="yes"/>
      <point x="75" y="355" type="line"/>
      <point x="30" y="355" type="line"/>
      <point x="35" y="409" type="line"/>
      <point x="80" y="409" type="line"/>
      <point x="96" y="603" type="line" smooth="yes"/>
      <point x="104" y="696"/>
      <point x="151" y="730"/>
      <point x="215" y="730" type="curve" smooth="yes"/>
      <point x="221" y="730" type="line"/>
      <point x="216" y="671" type="line"/>
      <point x="212" y="671" type="line" smooth="yes"/>
      <point x="173" y="671"/>
      <point x="160" y="642"/>
      <point x="156" y="600" type="curve" smooth="yes"/>
    </contour>
  </outline>
</glyph>
<glyph name="circumflex" format="1">
  <advance width="373"/>
  <unicode hex="02C6"/>
  <outline>
    <contour>
      <point x="278" y="487" type="line"/>
      <point x="227" y="487" type="line"/>
      <point x="186" y="577" type="line"/>
      <point x="145" y="487" type="line"/>
      <point x="96" y="487" type="line"/>
      <point x="162" y="625" type="line"/>
      <point x="211" y="625" type="line"/>
    </contour>
  </outline>
</glyph>
<glyph name="caron" format="1">
  <advance width="373"/>
  <unicode hex="02C7"/>
  <outline>
    <contour>
      <point x="276" y="625" type="line"/>
      <point x="210" y="487" type="line"/>
      <point x="161" y="487" type="line"/>
      <point x="95" y="625" type="line"/>
      <point x="144" y="625" type="line"/>
      <point x="186" y="537" type="line"/>
      <point x="228" y="625" type="line"/>
    </contour>
  </outline>
</glyph>
<glyph name="breve" format="1">
  <advance width="373"/>
  <unicode hex="02D8"/>
  <outline>
    <contour>
      <point x="292" y="610" type="line"/>
      <point x="292" y="524"/>
      <point x="246" y="483"/>
      <point x="186" y="483" type="curve" smooth="yes"/>
      <point x="127" y="483"/>
      <point x="82" y="524"/>
      <point x="82" y="610" type="curve"/>
      <point x="128" y="610" type="line"/>
      <point x="128" y="558"/>
      <point x="151" y="524"/>
      <point x="186" y="524" type="curve" smooth="yes"/>
      <point x="223" y="524"/>
      <point x="245" y="558"/>
      <point x="245" y="610" type="curve"/>
    </contour>
  </outline>
</glyph>
<glyph name="dotaccent" format="1">
  <advance width="373"/>
  <unicode hex="02D9"/>
  <outline>
    <contour>
      <point x="218" y="491" type="line"/>
      <point x="155" y="491" type="line"/>
      <point x="155" y="585" type="line"/>
      <point x="218" y="585" type="line"/>
    </contour>
  </outline>
</glyph>
<glyph name="ring" format="1">
  <advance width="373"/>
  <unicode hex="02DA"/>
  <outline>
    <contour>
      <point x="272" y="578" type="curve" smooth="yes"/>
      <point x="272" y="523"/>
      <point x="236" y="480"/>
      <point x="187" y="480" type="curve" smooth="yes"/>
      <point x="138" y="480"/>
      <point x="103" y="523"/>
      <point x="103" y="578" type="curve" smooth="yes"/>
      <point x="103" y="633"/>
      <point x="138" y="676"/>
      <point x="187" y="676" type="curve" smooth="yes"/>
      <point x="236" y="676"/>
      <point x="272" y="633"/>
    </contour>
    <contour>
      <point x="231" y="578" type="curve" smooth="yes"/>
      <point x="231" y="610"/>
      <point x="213" y="635"/>
      <point x="187" y="635" type="curve" smooth="yes"/>
      <point x="161" y="635"/>
      <point x="143" y="610"/>
      <point x="143" y="578" type="curve" smooth="yes"/>
      <point x="143" y="547"/>
      <point x="161" y="520"/>
      <point x="187" y="520" type="curve" smooth="yes"/>
      <point x="213" y="520"/>
      <point x="231" y="547"/>
    </contour>
  </outline>
</glyph>
<glyph name="ogonek" format="1">
  <advance width="373"/>
  <unicode hex="02DB"/>
  <outline>
    <contour>
      <point x="265" y="-146" type="line"/>
      <point x="242" y="-168"/>
      <point x="213" y="-180"/>
      <point x="180" y="-180" type="curve" smooth="yes"/>
      <point x="132" y="-180"/>
      <point x="86" y="-151"/>
      <point x="86" y="-99" type="curve" smooth="yes"/>
      <point x="86" y="-62"/>
      <point x="113" y="-22"/>
      <point x="170" y="12" type="curve"/>
      <point x="219" y="12" type="line"/>
      <point x="161" y="-29"/>
      <point x="143" y="-66"/>
      <point x="143" y="-96" type="curve" smooth="yes"/>
      <point x="143" y="-129"/>
      <point x="161" y="-143"/>
      <point x="183" y="-143" type="curve" smooth="yes"/>
      <point x="206" y="-143"/>
      <point x="223" y="-136"/>
      <point x="244" y="-118" type="curve"/>
    </contour>
  </outline>
</glyph>
<glyph name="tilde" format="1">
  <advance width="373"/>
  <unicode hex="02DC"/>
  <outline>
    <contour>
      <point x="291" y="581" type="line"/>
      <point x="291" y="514"/>
      <point x="268" y="484"/>
      <point x="227" y="484" type="curve" smooth="yes"/>
      <point x="201" y="484"/>
      <point x="186" y="502"/>
      <point x="173" y="517" type="curve" smooth="yes"/>
      <point x="163" y="529"/>
      <point x="152" y="541"/>
      <point x="142" y="541" type="curve" smooth="yes"/>
      <point x="127" y="541"/>
      <point x="120" y="517"/>
      <point x="119" y="487" type="curve"/>
      <point x="76" y="487" type="line"/>
      <point x="76" y="549"/>
      <point x="99" y="583"/>
      <point x="141" y="583" type="curve" smooth="yes"/>
      <point x="163" y="583"/>
      <point x="179" y="570"/>
      <point x="190" y="556" type="curve" smooth="yes"/>
      <point x="203" y="541"/>
      <point x="215" y="526"/>
      <point x="226" y="526" type="curve" smooth="yes"/>
      <point x="240" y="526"/>
      <point x="248" y="547"/>
      <point x="248" y="581" type="curve"/>
    </contour>
  </outline>
</glyph>
<glyph name="hungarumlaut" format="1">
  <advance width="373"/>
  <unicode hex="02DD"/>
  <outline>
    <contour>
      <point x="315" y="628" type="line"/>
      <point x="238" y="487" type="line"/>
      <point x="177" y="487" type="line"/>
      <point x="252" y="628" type="line"/>
    </contour>
    <contour>
      <point x="196" y="628" type="line"/>
      <point x="119" y="487" type="line"/>
      <point x="58" y="487" type="line"/>
      <point x="133" y="628" type="line"/>
    </contour>
  </outline>
</glyph>
<glyph name="endash" format="1">
  <advance width="281"/>
  <unicode hex="2013"/>
  <outline>
    <contour>
      <point x="249" y="191" type="line"/>
      <point x="32" y="191" type="line"/>
      <point x="32" y="249" type="line"/>
      <point x="249" y="249" type="line"/>
    </contour>
  </outline>
</glyph>
<glyph name="emdash" format="1">
  <advance width="428"/>
  <unicode hex="2014"/>
  <outline>
    <contour>
      <point x="396" y="192" type="line"/>
      <point x="32" y="192" type="line"/>
      <point x="32" y="249" type="line"/>
      <point x="396" y="249" type="line"/>
    </contour>
  </outline>
</glyph>
<glyph name="quoteleft" format="1">
  <advance width="141"/>
  <unicode hex="2018"/>
  <unicode hex="02BB"/>
  <outline>
    <contour>
      <point x="121" y="730" type="line"/>
      <point x="105" y="702"/>
      <point x="93" y="662"/>
      <point x="93" y="613" type="curve" smooth="yes"/>
      <point x="93" y="544" type="line"/>
      <point x="36" y="544" type="line"/>
      <point x="36" y="591" type="line" smooth="yes"/>
      <point x="36" y="645"/>
      <point x="64" y="702"/>
      <point x="86" y="730" type="curve"/>
    </contour>
  </outline>
</glyph>
<glyph name="quoteright" format="1">
  <advance width="141"/>
  <unicode hex="2019"/>
  <unicode hex="02BC"/>
  <outline>
    <contour>
      <point x="106" y="683" type="line" smooth="yes"/>
      <point x="106" y="629"/>
      <point x="78" y="572"/>
      <point x="56" y="544" type="curve"/>
      <point x="20" y="544" type="line"/>
      <point x="36" y="572"/>
      <point x="49" y="612"/>
      <point x="49" y="661" type="curve" smooth="yes"/>
      <point x="49" y="730" type="line"/>
      <point x="106" y="730" type="line"/>
    </contour>
  </outline>
</glyph>
<glyph name="quotesinglbase" format="1">
  <advance width="141"/>
  <unicode hex="201A"/>
  <outline>
    <contour>
      <point x="102" y="36" type="line" smooth="yes"/>
      <point x="102" y="-18"/>
      <point x="74" y="-74"/>
      <point x="52" y="-103" type="curve"/>
      <point x="17" y="-103" type="line"/>
      <point x="33" y="-74"/>
      <point x="45" y="-35"/>
      <point x="45" y="14" type="curve" smooth="yes"/>
      <point x="45" y="83" type="line"/>
      <point x="102" y="83" type="line"/>
    </contour>
  </outline>
</glyph>
<glyph name="quotedblleft" format="1">
  <advance width="256"/>
  <unicode hex="201C"/>
  <outline>
    <contour>
      <point x="236" y="730" type="line"/>
      <point x="220" y="702"/>
      <point x="208" y="662"/>
      <point x="208" y="613" type="curve" smooth="yes"/>
      <point x="208" y="544" type="line"/>
      <point x="151" y="544" type="line"/>
      <point x="151" y="591" type="line" smooth="yes"/>
      <point x="151" y="645"/>
      <point x="179" y="702"/>
      <point x="201" y="730" type="curve"/>
    </contour>
    <contour>
      <point x="121" y="730" type="line"/>
      <point x="105" y="702"/>
      <point x="93" y="662"/>
      <point x="93" y="613" type="curve" smooth="yes"/>
      <point x="93" y="544" type="line"/>
      <point x="36" y="544" type="line"/>
      <point x="36" y="591" type="line" smooth="yes"/>
      <point x="36" y="645"/>
      <point x="64" y="702"/>
      <point x="86" y="730" type="curve"/>
    </contour>
  </outline>
</glyph>
<glyph name="quotedblright" format="1">
  <advance width="256"/>
  <unicode hex="201D"/>
  <outline>
    <contour>
      <point x="221" y="683" type="line" smooth="yes"/>
      <point x="221" y="629"/>
      <point x="193" y="572"/>
      <point x="171" y="544" type="curve"/>
      <point x="135" y="544" type="line"/>
      <point x="151" y="572"/>
      <point x="164" y="612"/>
      <point x="164" y="661" type="curve" smooth="yes"/>
      <point x="164" y="730" type="line"/>
      <point x="221" y="730" type="line"/>
    </contour>
    <contour>
      <point x="106" y="683" type="line" smooth="yes"/>
      <point x="106" y="629"/>
      <point x="78" y="572"/>
      <point x="56" y="544" type="curve"/>
      <point x="20" y="544" type="line"/>
      <point x="36" y="572"/>
      <point x="49" y="612"/>
      <point x="49" y="661" type="curve" smooth="yes"/>
      <point x="49" y="730" type="line"/>
      <point x="106" y="730" type="line"/>
    </contour>
  </outline>
</glyph>
<glyph name="quotedblbase" format="1">
  <advance width="256"/>
  <unicode hex="201E"/>
  <outline>
    <contour>
      <point x="217" y="36" type="line" smooth="yes"/>
      <point x="217" y="-18"/>
      <point x="189" y="-74"/>
      <point x="167" y="-103" type="curve"/>
      <point x="132" y="-103" type="line"/>
      <point x="148" y="-74"/>
      <point x="160" y="-35"/>
      <point x="160" y="14" type="curve" smooth="yes"/>
      <point x="160" y="83" type="line"/>
      <point x="217" y="83" type="line"/>
    </contour>
    <contour>
      <point x="102" y="36" type="line" smooth="yes"/>
      <point x="102" y="-18"/>
      <point x="74" y="-74"/>
      <point x="52" y="-103" type="curve"/>
      <point x="17" y="-103" type="line"/>
      <point x="33" y="-74"/>
      <point x="45" y="-35"/>
      <point x="45" y="14" type="curve" smooth="yes"/>
      <point x="45" y="83" type="line"/>
      <point x="102" y="83" type="line"/>
    </contour>
  </outline>
</glyph>
<glyph name="dagger" format="1">
  <advance width="368"/>
  <unicode hex="2020"/>
  <outline>
    <contour>
      <point x="348" y="396" type="line"/>
      <point x="212" y="396" type="line"/>
      <point x="212" y="17" type="line"/>
      <point x="207" y="-179" type="line"/>
      <point x="161" y="-179" type="line"/>
      <point x="156" y="17" type="line"/>
      <point x="156" y="396" type="line"/>
      <point x="20" y="396" type="line"/>
      <point x="20" y="447" type="line"/>
      <point x="156" y="447" type="line"/>
      <point x="156" y="730" type="line"/>
      <point x="212" y="730" type="line"/>
      <point x="212" y="447" type="line"/>
      <point x="348" y="447" type="line"/>
    </contour>
  </outline>
</glyph>
<glyph name="daggerdbl" format="1">
  <advance width="379"/>
  <unicode hex="2021"/>
  <outline>
    <contour>
      <point x="354" y="61" type="line"/>
      <point x="218" y="61" type="line"/>
      <point x="218" y="-179" type="line"/>
      <point x="161" y="-179" type="line"/>
      <point x="161" y="61" type="line"/>
      <point x="26" y="61" type="line"/>
      <point x="26" y="112" type="line"/>
      <point x="161" y="112" type="line"/>
      <point x="161" y="150" type="line"/>
      <point x="166" y="276" type="line"/>
      <point x="161" y="407" type="line"/>
      <point x="161" y="445" type="line"/>
      <point x="26" y="445" type="line"/>
      <point x="26" y="496" type="line"/>
      <point x="161" y="496" type="line"/>
      <point x="161" y="730" type="line"/>
      <point x="218" y="730" type="line"/>
      <point x="218" y="496" type="line"/>
      <point x="354" y="496" type="line"/>
      <point x="354" y="445" type="line"/>
      <point x="218" y="445" type="line"/>
      <point x="218" y="407" type="line"/>
      <point x="213" y="275" type="line"/>
      <point x="218" y="150" type="line"/>
      <point x="218" y="112" type="line"/>
      <point x="354" y="112" type="line"/>
    </contour>
  </outline>
</glyph>
<glyph name="ellipsis" format="1">
  <advance width="418"/>
  <unicode hex="2026"/>
  <outline>
    <contour>
      <point x="379" y="0" type="line"/>
      <point x="320" y="0" type="line"/>
      <point x="320" y="91" type="line"/>
      <point x="379" y="91" type="line"/>
    </contour>
    <contour>
      <point x="239" y="0" type="line"/>
      <point x="180" y="0" type="line"/>
      <point x="180" y="91" type="line"/>
      <point x="239" y="91" type="line"/>
    </contour>
    <contour>
      <point x="98" y="0" type="line"/>
      <point x="39" y="0" type="line"/>
      <point x="39" y="91" type="line"/>
      <point x="98" y="91" type="line"/>
    </contour>
  </outline>
</glyph>
<glyph name="guilsinglleft" format="1">
  <advance width="131"/>
  <unicode hex="2039"/>
  <outline>
    <contour>
      <point x="107" y="129" type="line"/>
      <point x="107" y="59" type="line"/>
      <point x="18" y="173" type="line"/>
      <point x="18" y="230" type="line"/>
      <point x="109" y="344" type="line"/>
      <point x="109" y="275" type="line"/>
      <point x="54" y="201" type="line"/>
    </contour>
  </outline>
</glyph>
<glyph name="guilsinglright" format="1">
  <advance width="131"/>
  <unicode hex="203A"/>
  <outline>
    <contour>
      <point x="113" y="173" type="line"/>
      <point x="24" y="59" type="line"/>
      <point x="24" y="129" type="line"/>
      <point x="77" y="201" type="line"/>
      <point x="22" y="275" type="line"/>
      <point x="22" y="344" type="line"/>
      <point x="113" y="230" type="line"/>
    </contour>
  </outline>
</glyph>
<glyph name="fraction" format="1">
  <advance width="296"/>
  <unicode hex="2044"/>
  <outline>
    <contour>
      <point x="327" y="730" type="line"/>
      <point x="26" y="0" type="line"/>
      <point x="-31" y="0" type="line"/>
      <point x="270" y="730" type="line"/>
    </contour>
  </outline>
</glyph>
<glyph name="Euro" format="1">
  <advance width="386"/>
  <unicode hex="20AC"/>
  <outline>
    <contour>
      <point x="371" y="32" type="line"/>
      <point x="346" y="8"/>
      <point x="314" y="-12"/>
      <point x="273" y="-12" type="curve" smooth="yes"/>
      <point x="132" y="-12"/>
      <point x="82" y="124"/>
      <point x="71" y="288" type="curve"/>
      <point x="10" y="288" type="line"/>
      <point x="10" y="325" type="line"/>
      <point x="69" y="325" type="line"/>
      <point x="69" y="339"/>
      <point x="68" y="353"/>
      <point x="68" y="366" type="curve" smooth="yes"/>
      <point x="68" y="379"/>
      <point x="69" y="391"/>
      <point x="69" y="403" type="curve"/>
      <point x="10" y="403" type="line"/>
      <point x="10" y="440" type="line"/>
      <point x="71" y="440" type="line"/>
      <point x="84" y="614"/>
      <point x="143" y="742"/>
      <point x="266" y="742" type="curve" smooth="yes"/>
      <point x="311" y="742"/>
      <point x="342" y="727"/>
      <point x="369" y="702" type="curve"/>
      <point x="340" y="651" type="line"/>
      <point x="323" y="670"/>
      <point x="301" y="680"/>
      <point x="269" y="680" type="curve" smooth="yes"/>
      <point x="187" y="680"/>
      <point x="146" y="578"/>
      <point x="136" y="440" type="curve"/>
      <point x="266" y="440" type="line"/>
      <point x="266" y="403" type="line"/>
      <point x="134" y="403" type="line"/>
      <point x="133" y="391"/>
      <point x="133" y="379"/>
      <point x="133" y="366" type="curve" smooth="yes"/>
      <point x="133" y="353"/>
      <point x="133" y="339"/>
      <point x="134" y="325" type="curve"/>
      <point x="266" y="325" type="line"/>
      <point x="266" y="288" type="line"/>
      <point x="136" y="288" type="line"/>
      <point x="145" y="161"/>
      <point x="181" y="50"/>
      <point x="272" y="50" type="curve" smooth="yes"/>
      <point x="305" y="50"/>
      <point x="325" y="64"/>
      <point x="343" y="83" type="curve"/>
    </contour>
  </outline>
</glyph>
<glyph name="minus" format="1">
  <advance width="347"/>
  <unicode hex="2212"/>
  <outline>
    <contour>
      <point x="23" y="288" type="line"/>
      <point x="23" y="350" type="line"/>
      <point x="324" y="350" type="line"/>
      <point x="324" y="288" type="line"/>
    </contour>
  </outline>
</glyph>
<glyph name="radical" format="1">
  <advance width="425"/>
  <unicode hex="221A"/>
  <outline>
    <contour>
      <point x="388" y="730" type="line"/>
      <point x="208" y="-11" type="line"/>
      <point x="165" y="-11" type="line"/>
      <point x="11" y="316" type="line"/>
      <point x="76" y="316" type="line"/>
      <point x="166" y="121" type="line" smooth="yes"/>
      <point x="172" y="109"/>
      <point x="179" y="89"/>
      <point x="179" y="89" type="curve"/>
      <point x="179" y="89"/>
      <point x="181" y="109"/>
      <point x="184" y="121" type="curve" smooth="yes"/>
      <point x="328" y="730" type="line"/>
    </contour>
  </outline>
</glyph>
<glyph name="f_f_l" format="1">
  <advance width="507"/>
  <unicode hex="FB04"/>
  <outline>
    <contour>
      <point x="335" y="357" type="line"/>
      <point x="291" y="357" type="line"/>
      <point x="291" y="0" type="line"/>
      <point x="234" y="0" type="line"/>
      <point x="234" y="357" type="line"/>
      <point x="190" y="357" type="line"/>
      <point x="190" y="408" type="line"/>
      <point x="234" y="408" type="line"/>
      <point x="234" y="615" type="line" smooth="yes"/>
      <point x="234" y="697"/>
      <point x="277" y="733"/>
      <point x="334" y="733" type="curve"/>
      <point x="334" y="676" type="line"/>
      <point x="306" y="676"/>
      <point x="291" y="654"/>
      <point x="291" y="610" type="curve" smooth="yes"/>
      <point x="291" y="408" type="line"/>
      <point x="335" y="408" type="line"/>
    </contour>
    <contour>
      <point x="159" y="357" type="line"/>
      <point x="115" y="357" type="line"/>
      <point x="115" y="0" type="line"/>
      <point x="58" y="0" type="line"/>
      <point x="58" y="357" type="line"/>
      <point x="14" y="357" type="line"/>
      <point x="14" y="408" type="line"/>
      <point x="58" y="408" type="line"/>
      <point x="58" y="615" type="line" smooth="yes"/>
      <point x="58" y="697"/>
      <point x="101" y="733"/>
      <point x="158" y="733" type="curve"/>
      <point x="158" y="676" type="line"/>
      <point x="130" y="676"/>
      <point x="115" y="654"/>
      <point x="115" y="610" type="curve" smooth="yes"/>
      <point x="115" y="408" type="line"/>
      <point x="159" y="408" type="line"/>
    </contour>
    <contour>
      <point x="458" y="0" type="line"/>
      <point x="401" y="0" type="line"/>
      <point x="401" y="730" type="line"/>
      <point x="458" y="730" type="line"/>
    </contour>
  </outline>
</glyph>
<glyph name="bullet" format="1">
  <advance width="284"/>
  <outline>
    <contour>
      <point x="235" y="379" type="curve" smooth="yes"/>
      <point x="235" y="328"/>
      <point x="193" y="286"/>
      <point x="142" y="286" type="curve" smooth="yes"/>
      <point x="91" y="286"/>
      <point x="49" y="328"/>
      <point x="49" y="379" type="curve" smooth="yes"/>
      <point x="49" y="430"/>
      <point x="91" y="472"/>
      <point x="142" y="472" type="curve" smooth="yes"/>
      <point x="193" y="472"/>
      <point x="235" y="430"/>
    </contour>
  </outline>
</glyph>
<glyph name="macron" format="1">
  <advance width="373"/>
  <outline>
    <contour>
      <point x="284" y="493" type="line"/>
      <point x="89" y="493" type="line"/>
      <point x="89" y="547" type="line"/>
      <point x="284" y="547" type="line"/>
    </contour>
  </outline>
</glyph>
<glyph name="onesuperior" format="1">
  <advance width="200"/>
  <outline>
    <contour>
      <point x="129" y="335" type="line"/>
      <point x="78" y="335" type="line"/>
      <point x="78" y="648" type="line"/>
      <point x="73" y="636"/>
      <point x="58" y="624"/>
      <point x="42" y="619" type="curve"/>
      <point x="42" y="672" type="line"/>
      <point x="61" y="679"/>
      <point x="81" y="706"/>
      <point x="85" y="730" type="curve"/>
      <point x="129" y="730" type="line"/>
    </contour>
  </outline>
</glyph>
